<?xml version="1.0" encoding="utf-8"?>
<!-- Generator: Adobe Illustrator 26.3.1, SVG Export Plug-In . SVG Version: 6.00 Build 0)  -->
<svg version="1.1" id="Layer_1" xmlns="http://www.w3.org/2000/svg" xmlns:xlink="http://www.w3.org/1999/xlink" x="0px" y="0px"
	 viewBox="0 0 1366 768" style="enable-background:new 0 0 1366 768;" xml:space="preserve">
<style type="text/css">
	.st0{opacity:0.09;}
	.st1{fill-rule:evenodd;clip-rule:evenodd;fill:#E2E8F5;}
	.st2{fill-rule:evenodd;clip-rule:evenodd;fill:#B1C0E2;}
	.st3{fill-rule:evenodd;clip-rule:evenodd;fill:#BFCCE8;}
	.st4{fill-rule:evenodd;clip-rule:evenodd;fill:#9EB1D9;}
	.st5{fill-rule:evenodd;clip-rule:evenodd;fill:#01020E;}
	.st6{fill-rule:evenodd;clip-rule:evenodd;fill:#E2E1E7;}
	.st7{fill-rule:evenodd;clip-rule:evenodd;fill:#E74D91;}
	.st8{fill-rule:evenodd;clip-rule:evenodd;fill:#0E1632;}
	.st9{fill-rule:evenodd;clip-rule:evenodd;fill:#E8685B;}
	.st10{fill-rule:evenodd;clip-rule:evenodd;fill:#FFFFFF;}
	.st11{fill-rule:evenodd;clip-rule:evenodd;fill:#0076BD;}
	.st12{fill-rule:evenodd;clip-rule:evenodd;fill:#3A405C;}
	.st13{fill-rule:evenodd;clip-rule:evenodd;fill:#F4AD85;}
	.st14{fill-rule:evenodd;clip-rule:evenodd;fill:#ED9072;}
	.st15{fill-rule:evenodd;clip-rule:evenodd;fill:#010518;}
	.st16{fill-rule:evenodd;clip-rule:evenodd;fill:#E68392;}
	.st17{fill-rule:evenodd;clip-rule:evenodd;fill:#F2F0F0;}
	.st18{fill-rule:evenodd;clip-rule:evenodd;fill:#E37B64;}
	.st19{fill-rule:evenodd;clip-rule:evenodd;fill:#E6E4EB;}
	.st20{fill-rule:evenodd;clip-rule:evenodd;fill:#D64341;}
	.st21{fill-rule:evenodd;clip-rule:evenodd;fill:#003F6A;}
	.st22{fill-rule:evenodd;clip-rule:evenodd;fill:#04263B;}
	.st23{fill-rule:evenodd;clip-rule:evenodd;fill:#004A82;}
	.st24{fill-rule:evenodd;clip-rule:evenodd;fill:#383D5D;}
	.st25{fill-rule:evenodd;clip-rule:evenodd;fill:#B92F6D;}
	.st26{fill-rule:evenodd;clip-rule:evenodd;fill:#C9C4D1;}
	.st27{fill-rule:evenodd;clip-rule:evenodd;fill:#F4F4F7;}
	.st28{fill-rule:evenodd;clip-rule:evenodd;fill:#EBEAEF;}
	.st29{fill-rule:evenodd;clip-rule:evenodd;fill:#C5C1CD;}
	.st30{fill-rule:evenodd;clip-rule:evenodd;fill:#E0DEE1;}
	.st31{fill-rule:evenodd;clip-rule:evenodd;fill:#ACADBB;}
	.st32{fill-rule:evenodd;clip-rule:evenodd;fill:#CA2871;}
	.st33{fill-rule:evenodd;clip-rule:evenodd;fill:#B0DDE5;}
</style>
<g class="st0">
	<path class="st1" d="M424.45,727.1h26.52h758.12c28.11,0,51.11-23,51.11-51.12l0,0c0-28.12-23-51.12-51.11-51.12h-21.26
		c-91.19,0-165.79-74.61-165.79-165.79c0-91.18-74.61-165.79-165.79-165.79l0.36-0.01H719.85c-10.73,0-19.51-8.78-19.51-19.51l0,0
		c0-10.73,8.78-19.51,19.51-19.51h86.83c14.96,0,27.2-12.24,27.2-27.2l0,0c0-14.96-12.24-27.2-27.2-27.2H697.69
		c-30.21,0-54.93-24.72-54.93-54.93c0-30.21-24.72-54.93-54.94-54.93l0.12,0H450.97H291.76c-30.76,0-55.92,25.16-55.92,55.92l0,0
		c0,30.76,25.16,55.92,55.92,55.92h84.07l-0.14,0c17.38,0.07,31.58,14.32,31.58,31.71l0,0c0,17.4-14.2,31.64-31.58,31.71l0.14,0
		c-34.48,0-62.7,28.21-62.7,62.7c0,34.48-28.21,62.7-62.7,62.7c-92.52,0-168.22,75.7-168.22,168.22l0,0
		c0,92.52,75.7,168.22,168.22,168.22H424.45L424.45,727.1z M150.96,201.84c-30.76,0-55.92-25.16-55.92-55.92l0,0
		c0-30.76,25.16-55.92,55.92-55.92l0,0c30.76,0,55.92,25.16,55.92,55.92l0,0C206.89,176.67,181.72,201.84,150.96,201.84
		L150.96,201.84z"/>
	<g>
		<path class="st2" d="M1010.82,399.3c-1.93-4.95-4.09-9.79-6.48-14.5H854.92c-1.28,0-1.77,1.05-1.09,2.33l5.25,9.84
			c0.68,1.28,2.29,2.33,3.57,2.33H1010.82z"/>
		<path class="st2" d="M1017.03,418.72c-1.25-4.92-2.71-9.76-4.39-14.5H854.92c-1.28,0-1.77,1.05-1.09,2.33l5.25,9.84
			c0.68,1.28,2.29,2.33,3.57,2.33H1017.03z"/>
		<path class="st2" d="M1020.71,438.15c-0.63-4.9-1.48-9.74-2.52-14.51H854.92c-1.28,0-1.77,1.05-1.09,2.33l5.25,9.84
			c0.68,1.28,2.29,2.33,3.57,2.33H1020.71z"/>
		<path class="st2" d="M1022.02,457.57c-0.05-4.89-0.3-9.72-0.76-14.51H854.92c-1.28,0-1.77,1.05-1.09,2.33l5.25,9.84
			c0.68,1.28,2.29,2.33,3.57,2.33H1022.02z"/>
		<path class="st2" d="M1023.02,477c-0.52-4.78-0.83-9.62-0.94-14.5H854.92c-1.28,0-1.77,1.05-1.09,2.33l5.25,9.84
			c0.68,1.28,2.29,2.33,3.57,2.33H1023.02z"/>
		<path class="st2" d="M881.73,390.1c0-0.81-0.66-1.47-1.47-1.47c-0.81,0-1.47,0.66-1.47,1.47v126.91c0,0.81,0.66,1.47,1.47,1.47
			c0.81,0,1.47-0.66,1.47-1.47V390.1z"/>
		<path class="st2" d="M874.39,550.94c0,3.24,2.63,5.87,5.87,5.87c3.24,0,5.87-2.63,5.87-5.87v-33.93c0-3.24-2.63-5.87-5.87-5.87
			c-3.24,0-5.87,2.63-5.87,5.87V550.94z"/>
	</g>
	<g>
		<path class="st2" d="M587.29,113.68H398.17c-1.33,0-1.84,1.09-1.13,2.42l5.44,10.21c0.71,1.33,2.38,2.42,3.71,2.42h189.12
			c1.33,0,1.84-1.09,1.13-2.42L591,116.09C590.29,114.76,588.63,113.68,587.29,113.68z"/>
		<path class="st2" d="M587.29,133.82H398.17c-1.33,0-1.84,1.09-1.13,2.42l5.44,10.21c0.71,1.33,2.38,2.42,3.71,2.42h189.12
			c1.33,0,1.84-1.09,1.13-2.42L591,136.24C590.29,134.91,588.63,133.82,587.29,133.82z"/>
		<path class="st2" d="M425.99,119.18c0-0.84-0.68-1.52-1.52-1.52c-0.84,0-1.52,0.68-1.52,1.52v131.63c0,0.84,0.68,1.52,1.52,1.52
			c0.84,0,1.52-0.68,1.52-1.52V119.18z"/>
		<path class="st2" d="M418.37,286c0,3.36,2.73,6.09,6.09,6.09c3.36,0,6.09-2.73,6.09-6.09v-35.19c0-3.37-2.73-6.09-6.09-6.09
			c-3.36,0-6.09,2.73-6.09,6.09V286z"/>
	</g>
	<g>
		<path class="st2" d="M265.1,388.91c-4.71,1.14-9.62,1.75-14.67,1.75c-22.08,0-43.19,4.32-62.56,12.14h84.89
			c1.23,0,2.77-1,3.42-2.23l5.03-9.43c0.65-1.23,0.18-2.23-1.04-2.23H265.1z"/>
		<path class="st2" d="M177.27,407.51c-8.22,4-16.07,8.66-23.48,13.89h118.98c1.23,0,2.77-1,3.42-2.23l5.03-9.43
			c0.65-1.23,0.18-2.23-1.04-2.23H177.27z"/>
		<path class="st2" d="M147.44,426.11c-5.53,4.31-10.79,8.94-15.75,13.89h141.08c1.23,0,2.77-1.01,3.42-2.23l5.03-9.43
			c0.65-1.23,0.18-2.23-1.04-2.23H147.44z"/>
		<path class="st2" d="M127.17,444.72c-4.1,4.42-7.97,9.05-11.58,13.89h157.18c1.23,0,2.77-1.01,3.42-2.23l5.03-9.43
			c0.65-1.23,0.18-2.23-1.04-2.23H127.17z"/>
		<path class="st2" d="M112.2,463.32c-3.11,4.48-6.01,9.11-8.68,13.89h169.25c1.23,0,2.77-1,3.42-2.23l5.03-9.43
			c0.65-1.23,0.18-2.23-1.04-2.23H112.2z"/>
		<path class="st2" d="M254.5,395.85c0-1.81,0.63-3.27,1.41-3.27c0.78,0,1.41,1.46,1.41,3.27v282.58c0,1.8-0.63,3.27-1.41,3.27
			c-0.78,0-1.41-1.47-1.41-3.27V395.85z"/>
		<path class="st2" d="M261.53,714.2c0,3.11-2.52,5.62-5.63,5.62c-3.11,0-5.62-2.52-5.62-5.62v-32.49c0-3.11,2.52-5.62,5.62-5.62
			c3.11,0,5.63,2.52,5.63,5.62V714.2z"/>
		<path class="st2" d="M105.56,481.92h174.62c1.23,0,1.7,1,1.04,2.23l-5.03,9.43c-0.65,1.23-2.19,2.23-3.42,2.23H98.15
			c-1.23,0-1.7-1-1.04-2.23l5.03-9.43C102.79,482.93,104.33,481.92,105.56,481.92z"/>
		<path class="st2" d="M105.56,500.52h174.62c1.23,0,1.7,1.01,1.04,2.23l-5.03,9.43c-0.65,1.23-2.19,2.23-3.42,2.23H98.15
			c-1.23,0-1.7-1.01-1.04-2.23l5.03-9.43C102.79,501.53,104.33,500.52,105.56,500.52z"/>
		<path class="st2" d="M105.56,519.13h174.62c1.23,0,1.7,1.01,1.04,2.23l-5.03,9.43c-0.65,1.23-2.19,2.23-3.42,2.23H98.15
			c-1.23,0-1.7-1-1.04-2.23l5.03-9.43C102.79,520.13,104.33,519.13,105.56,519.13z"/>
		<path class="st2" d="M105.56,537.73h174.62c1.23,0,1.7,1,1.04,2.23l-5.03,9.43c-0.65,1.23-2.19,2.23-3.42,2.23H98.15
			c-1.23,0-1.7-1-1.04-2.23l5.03-9.43C102.79,538.73,104.33,537.73,105.56,537.73z"/>
		<path class="st2" d="M105.56,556.33h174.62c1.23,0,1.7,1.01,1.04,2.23l-5.03,9.43c-0.65,1.23-2.19,2.23-3.42,2.23H98.15
			c-1.23,0-1.7-1-1.04-2.23l5.03-9.43C102.79,557.34,104.33,556.33,105.56,556.33z"/>
		<path class="st2" d="M105.56,574.93h174.62c1.23,0,1.7,1.01,1.04,2.23l-5.03,9.43c-0.65,1.23-2.19,2.23-3.42,2.23H98.15
			c-1.23,0-1.7-1.01-1.04-2.23l5.03-9.43C102.79,575.94,104.33,574.93,105.56,574.93z"/>
		<path class="st2" d="M105.56,593.54h174.62c1.23,0,1.7,1.01,1.04,2.23l-5.03,9.43c-0.65,1.23-2.19,2.23-3.42,2.23H98.15
			c-1.23,0-1.7-1-1.04-2.23l5.03-9.43C102.79,594.54,104.33,593.54,105.56,593.54z"/>
		<path class="st2" d="M105.56,612.14h174.62c1.23,0,1.7,1,1.04,2.23l-5.03,9.43c-0.65,1.23-2.19,2.23-3.42,2.23H98.15
			c-1.23,0-1.7-1-1.04-2.23l5.03-9.43C102.79,613.14,104.33,612.14,105.56,612.14z"/>
	</g>
	<path class="st3" d="M313.52,180.04c-1.53,4.3-4.67,7.63-8.5,10.02c-1.83,1.14-4.17,2.28-6.26,2.88c-0.98,0.28-2.01-0.28-2.29-1.26
		c-0.06-0.23-0.09-0.46-0.06-0.7c0.19-1.89,0.19-3.81-0.06-5.7c-0.14-1.05-0.35-2.1-0.65-3.12c-8.38-1.13-16.05-5.19-21.73-11.47
		c-5.96-6.59-9.22-15.08-9.22-23.97c0-9.51,3.75-18.56,10.47-25.28c6.73-6.73,15.77-10.47,25.28-10.47
		c9.51,0,18.56,3.75,25.28,10.47c6.73,6.73,10.47,15.77,10.47,25.28c0,7.36-2.24,14.49-6.47,20.51
		C325.75,173.01,320.07,177.48,313.52,180.04z"/>
	<path class="st4" d="M950.75,553.75h61.42c1.39,0,2.68,0.5,3.68,1.33c0.28,0.11,0.52,0.3,0.72,0.55c0.11,0.15,0.19,0.3,0.25,0.46
		c0.72,0.97,1.15,2.16,1.15,3.46v36.1c0,1.59-0.65,3.04-1.7,4.09v0.01c-1.05,1.05-2.5,1.7-4.1,1.7h-61.42c-1.6,0-3.05-0.65-4.1-1.7
		c-1.05-1.05-1.7-2.5-1.7-4.1v-36.1c0-1.3,0.43-2.5,1.16-3.47c0.06-0.16,0.14-0.31,0.25-0.45c0.19-0.25,0.44-0.44,0.71-0.55
		C948.07,554.25,949.36,553.75,950.75,553.75z"/>
	<g>
		<path class="st5" d="M474.6,482.95c13.83,7.45,21.49,16.27,30.93,29.03c20.99,28.41,29.19,50.18,53.08,75.82
			c8.81,9.45,52.2-64.83,57.21-74.6c0.98-1.91,5.2-11.1,8.79-8.2c1.68,1.35,7.53,7.28,11.26,9.19c3.73,1.9,8.28,0.92,9.16,6.44
			c-9.85,36.65-53.68,153.6-105.72,115.11c-36.92-27.31-64.45-69.29-69.16-75.38c-17.09-22.1-5.96-44.25-13.59-59.98l-0.03-0.05
			l-0.5-1.06l-0.17-0.36l-0.32-0.68l-0.01-0.02l-0.29-0.64l-0.17-0.37l-0.11-0.26l0,0c-3.23-7.34-3.42-10.26-3.42-10.26l7.18,7.98
			L474.6,482.95z"/>
		<path class="st6" d="M327.96,512.18l24.2-30.59l5.35-4.59l53.74-20.21l24.87,3.88h0c0,0,24.81,12.08,26.91,11.97
			c0.23-0.01,0.59-0.15,1.05-0.4l14.67,42.2c0,0,8.91,61.14,10.17,65.3c1.26,4.16,2.34,62.8-2.28,71.22
			c-4.62,8.42-0.7,21.47-18.5,26.95c-17.8,5.48-55.87,16.07-81.43-10.94c-25.56-27.02-30.88-42.01-37.27-51.15
			C343.03,606.69,327.96,512.18,327.96,512.18z"/>
		<path class="st7" d="M429.52,495.2l1.49,2.59c0,0,21.3,64.44,20.42,116.07c-0.88,51.64-26.92,7.5-26.48,3.09
			c0.44-4.41,5.06-88.48,0.54-118.83C425.49,498.12,425.83,494.04,429.52,495.2z"/>
		<path class="st5" d="M441.31,463.57c0,0,20.66,49.32,12.87,105.82c-7.78,56.49-24.22,99.74-24.22,99.74L426,718.65h71.4
			c0.49-19.99,1.22-36.82,2.24-48.19C505.25,607.79,522.57,474.51,441.31,463.57z"/>
		<path class="st8" d="M441.31,463.57c0,0,20.66,49.32,12.87,105.82c-2.83,20.56-6.81,39.36-10.73,54.96v0l1.86,8.72
			c15.36-36.06,39.09-127.15,38.51-127.44c-0.58-0.29-14.62-1.38-14.62-1.38c3.35-3.27,7.49-4.95,6.62-6.55
			c-0.79-1.44-20.64-26.96-24.6-32.04C448.1,464.75,444.81,464.04,441.31,463.57z"/>
		<path class="st5" d="M451.04,718.65c-0.71-13.06-1.37-22.5-1.74-26.76c-7.98-91.56-3.99-152.85-65.5-225.22
			c-14.39,2.76-40.3,16.28-40.3,16.28c-11.4,5.95-22.27,15.51-24.16,28.7c-2.68,18.72,17.68,83.56,30.21,124.19
			c5.4,17.5,6.07,47.49,4.3,82.81H451.04z"/>
		<path class="st9" d="M391.49,406.06l0.63,14.67c0,0,0,30.07,0,34.63c0,2.21-2.06,5.39-5.69,8.16
			c5.41,5.87,18.76,19.51,27.13,20.81c10.7,1.65,23.06-3.09,26.15-5.74c2.16-1.85,2.37-11.43,3.63-16.8c-1-0.27,0.14,0.01-0.87-0.32
			c-2.61-0.86-5.09-2.1-6.69-3.85c-5.02-5.48-4.79-29.91,0.23-36.29C441.03,414.95,391.49,406.06,391.49,406.06z"/>
		<path class="st6" d="M431.6,477.6l-6.06-3.27c0,0-0.51,6.69-1.23,6.91c-0.72,0.22-1.68-4.2-4.3-5.8c-2.62-1.6-9.61,7.95-9.61,7.95
			s2.6,7.45,6.35,8c3.75,0.55,15.05,1.8,15.19-1.58C432.1,486.43,431.6,477.6,431.6,477.6z"/>
		<path class="st7" d="M423.82,485.66c0,0-5.35-0.38-9.82-3.26c-4.47-2.87-7.78,0.72-7.78,0.72l4.3,4.88l0.33,2.07
			c0,0,6.42-1.13,10.5,1.83C425.42,494.87,423.82,485.66,423.82,485.66z"/>
		<path class="st10" d="M389.16,456.51c0,0,7.61,13.68,27.8,17.21c2.76,0.58,7.99,5.64,4.3,4.97c-3.69-0.68-11.92,15.12-13.02,21.07
			c-1.1,5.96-25.39-25.04-26.93-34.75C381.32,465.01,385.3,457.61,389.16,456.51z"/>
		<path class="st7" d="M432.28,486.04c0,0-2.32-1.82-4.19-1.82c-1.88,0-5.3,0-6.73,1.27c-1.44,1.27-3.14,4.2-3.25,5.14
			c-0.12,0.94,5.63,6.62,7.39,7.5c1.76,0.88,3.64-0.55,5.52-0.33C432.88,498.01,433.44,488.01,432.28,486.04z"/>
		<path class="st10" d="M434.81,456.22c0,0,1.62,12.08-7.95,16.4c0,0-2.62,1.33-0.48,3.72c2.14,2.39,5.3,11.82,6.26,16.06
			c0.95,4.23,12.77-17.22,11.94-30.41C444.58,461.99,438.03,457.09,434.81,456.22z"/>
		<path class="st5" d="M343.49,482.95c-13.83,7.45-21.49,16.27-30.93,29.03c-20.99,28.41-29.19,50.18-53.08,75.82
			c-8.81,9.45-52.2-64.83-57.21-74.6c-0.98-1.91-5.2-11.1-8.79-8.2c-1.68,1.35-7.53,7.28-11.26,9.19c-3.73,1.9-8.28,0.92-9.16,6.44
			c9.85,36.65,53.68,153.6,105.72,115.11c36.92-27.31,64.45-69.29,69.16-75.38c17.09-22.1,5.96-44.25,13.59-59.98l0.03-0.05
			l0.5-1.06l0.17-0.36l0.32-0.68l0-0.02l0.29-0.64l0.17-0.37l0.12-0.26h0c3.23-7.34,3.42-10.26,3.42-10.26l-7.18,7.98L343.49,482.95
			z"/>
		<path class="st11" d="M477.36,383.65c0,1.54,1.25,2.78,2.78,2.78c1.54,0,2.78-1.25,2.78-2.78v-75.39
			c0-8.61-3.06-20.29-13.35-28.77c-7.26-5.99-18.09-10.34-33.95-10.77c-18.45-0.5-38.34,0.91-53.72,7.29
			c-15.98,6.62-27.12,18.44-27.12,38.65v64.09c0,1.53,1.25,2.78,2.78,2.78s2.78-1.25,2.78-2.78v-64.09
			c0-17.48,9.74-27.74,23.69-33.52c14.55-6.03,33.66-7.36,51.46-6.88c14.44,0.39,24.16,4.23,30.56,9.51
			c8.72,7.19,11.31,17.14,11.31,24.49V383.65z"/>
		<path class="st12" d="M495.39,391.95h-2.24c-3.07,0-5.59,2.51-5.59,5.59l0,0c0,3.07,2.51,5.59,5.59,5.59h2.24
			c3.07,0,5.59-2.51,5.59-5.59l0,0C500.98,394.46,498.46,391.95,495.39,391.95z"/>
		<path class="st11" d="M472.06,419.79c12.24,0,22.25-10.01,22.25-22.25l0,0c0-12.24-10.01-22.25-22.25-22.25V419.79z"/>
		<path class="st8" d="M472.06,370.43L472.06,370.43c-2.18,0-3.97,1.78-3.97,3.97v46.28c0,2.18,1.78,3.97,3.97,3.97h0
			c2.18,0,3.97-1.79,3.97-3.97V374.4C476.03,372.22,474.24,370.43,472.06,370.43z"/>
		<path class="st13" d="M423.71,299.15L423.71,299.15c-29.55-1.21-54.73,21.97-55.94,51.53l-2.01,48.83
			c-1.21,29.56,21.97,54.73,51.53,55.94l0,0c29.55,1.21,54.73-21.97,55.94-51.53l2.01-48.83
			C476.45,325.54,453.27,300.37,423.71,299.15z"/>
		<path class="st14" d="M416.13,299.38c-26.16,2.64-47.25,24.31-48.36,51.3l-2.01,48.83c-1.21,29.56,21.97,54.73,51.53,55.94l0,0
			c2.05,0.08,4.07,0.04,6.07-0.1c-37.81-0.42-39.21-43.85-39.21-62.17c0-18.33,21.82-39.28,31.28-39.71
			c9.46-0.44,25.87,11.7,25.87,11.7s18.94-24.06,18.65-22.32C455.79,338.71,434.18,314.27,416.13,299.38z"/>
		<path class="st10" d="M409.25,409.36c-0.39,9.44,6.95,17.4,16.39,17.79c9.44,0.39,17.41-6.95,17.79-16.39l-0.03,0
			c0.07-1.62-1.21-3.01-2.83-3.07l-28.22-1.16c-1.62-0.07-3.01,1.21-3.07,2.83H409.25z"/>
		<path class="st8" d="M363.69,316.99c0,0-25.24,7.51-3.87,59.36c5.25,0.22,6.73,4.25,6.59,7.6l-0.28,6.69
			c8.22-3.28,7.2-12.02,6.14-16.26c0,0,30.28-6.18,35.65-39.28c0,0,0.22-2.4,3.23-0.47c2.58,1.66,28.1,35.07,51.71,44.2
			c21.57,8.33,43.04-19.06,38.96-42.69C488.17,257.02,365.94,262.18,363.69,316.99z"/>
		<path class="st15" d="M363.69,316.99c0,0-25.24,7.51-3.87,59.36c5.25,0.22,6.73,4.25,6.59,7.6l-0.28,6.69
			c8.22-3.28,7.2-12.02,6.14-16.26c0,0,30.28-6.18,35.65-39.28c0,0,0.22-2.4,3.23-0.47c2.58,1.66,28.1,35.07,51.71,44.2
			c20,7.73,39.92-15.27,39.45-37.5c-0.08,1.3-2.22,31.54-32.6,21.32c-31.04-10.44-53.02-37.48-67.06-32.25
			c-14.02,5.23-46.33,7.64-35.71-26.74C365.04,307.7,363.89,312.15,363.69,316.99z"/>
		<path class="st11" d="M354.78,314.9v63.85c0,1.53,1.25,2.78,2.78,2.78s2.78-1.25,2.78-2.78V314.9H354.78z"/>
		<path class="st12" d="M342.73,391.95h2.24c3.07,0,5.59,2.51,5.59,5.59l0,0c0,3.07-2.51,5.59-5.59,5.59h-2.24
			c-3.07,0-5.59-2.51-5.59-5.59l0,0C337.14,394.46,339.66,391.95,342.73,391.95z"/>
		<path class="st11" d="M366.06,419.79c-12.24,0-22.25-10.01-22.25-22.25l0,0c0-12.24,10.01-22.25,22.25-22.25V419.79z"/>
		<path class="st8" d="M366.06,370.43L366.06,370.43c2.18,0,3.97,1.78,3.97,3.97v46.28c0,2.18-1.79,3.97-3.97,3.97l0,0
			c-2.18,0-3.97-1.79-3.97-3.97V374.4C362.09,372.22,363.88,370.43,366.06,370.43z"/>
		<path class="st8" d="M446.66,658.19c-5.4-73.7-9.21-128.4-62.87-191.52c-3.72,0.71-8.21,2.15-12.83,3.88
			c1.38,6.68,5.97,29.18,6.34,33.26c0,0,0.33,0.73,1.34,0.98c1.02,0.25,14.95-2.07,14.95-2.07s-16.69,10.98-17.46,11.67
			c-0.76,0.69,69.89,144.27,69.89,144.27L446.66,658.19z"/>
		<g>
			<path class="st13" d="M202.55,501.01c1.36-7.16,8.11-23.07,9.74-24.75c2.14-2.23-9.17-9.03-13.18,1.71c0,0-5.3,7.13-7.35,5.94
				c-2.06-1.19-6.06-28.75-6.4-32.2c-0.35-3.44-5.04-3.71-6.11-2.74c-1.07,0.97-0.08,5.39,0.2,11.74
				c0.28,6.35,0.52,10.29-0.02,10.92c-1.52,1.78-9.12-21.6-11.82-23.11c-1.7-0.96-7.08,1.35-6.8,4.57
				c0.28,3.22,8.7,22.27,9.01,25.06c0.3,2.78-1.34,1.25-2.58-0.26c-1.24-1.52-12.59-20.47-14.14-21.42
				c-1.56-0.95-6.52,1.92-5.37,5.18c1.16,3.26,11.91,22.28,11.83,23.88c-0.08,1.6-1.19,1.41-4.72-1.09
				c-3.52-2.5-10.51-7.66-12.52-7.17c-1.31-0.06-3.03,3.94,0.1,7.14c3.13,3.21,10.6,11.43,11.56,12.79
				c5.04,7.17,7.62,15.05,12.32,20.1c1.7,1.83,3.92,3.21,6.42,4.14C188.02,527.18,199.74,515.78,202.55,501.01z"/>
			<path class="st14" d="M165.22,516.08c0.34,0.42,0.69,0.84,1.06,1.23c1.56,1.68,3.56,2.98,5.81,3.91c0.2,0.08,0.4,0.16,0.61,0.24
				c10.06,3.76,18.57,0.13,24.02-6.98c2.85-3.72,4.86-8.39,5.82-13.46c0.03-0.17,0.07-0.35,0.11-0.52
				C195.97,515.15,180.48,520.84,165.22,516.08z"/>
		</g>
	</g>
	<g>
		<g>
			<path class="st16" d="M629.76,394.08c0,0,7.62-2.46,9.56-10.58c1.94-8.12,18.76-3.94,19.34-1.55c0.59,2.39,2.44,5.61,1.95,9.89
				c-0.49,4.28,1.7,5.61,1.7,5.61c-11.75,7.07-13.32,0.24-26.11,10.26C632.04,410.98,630.61,399.29,629.76,394.08z"/>
			<path class="st8" d="M691.73,469.83L683,457.15c0,0-54.22,17.8-82,7.93c-27.78-9.87,35.59-53.21,40.06-58.13
				c4.47-4.92-4.01-7.69-6.25-11.39c-2.24-3.7-2.79-8.4-5.41-7.81c-2.63,0.59-68.37,45.82-70.92,87.35
				c-2.55,41.53,102.34,47.34,112.61,41.89C681.35,511.52,691.73,469.83,691.73,469.83z"/>
			<path class="st5" d="M691.73,469.83L683,457.15c0,0-12.33,4.05-28.25,7.21c-5.25,10.71-13.95,23.72-26.86,29.21
				c-23.71,10.1-60.76,4.29-69.42-18.49c-2.55,41.53,102.34,47.34,112.61,41.89C681.35,511.52,691.73,469.83,691.73,469.83
				L691.73,469.83z M594,457.29L594,457.29c-2.26-13.98,25.54-36.42,28.81-47.9c1.69-5.93-0.63-11.27-3.26-15.07
				c5.5-4.07,9.27-6.45,9.85-6.58c2.63-0.59,3.17,4.11,5.41,7.81c2.24,3.7,10.72,6.48,6.25,11.39
				C637.37,411.01,593.45,441.31,594,457.29z"/>
			<path class="st17" d="M628.31,385.77c0,0-4.46,2.64-5.77,3.85c-1.31,1.21,1.97,8.2,5.28,14.12c3.3,5.92,6.84,8.95,7.88,9.27
				c1.03,0.31,3.97-2.36,3.97-2.36L628.31,385.77z"/>
			<g>
				<path class="st8" d="M681.42,319.11c-1.88,0.74-55.28,46.29-58.48,48.84c-3.2,2.55-2.54,4.85,1.23,11.79
					c3.77,6.94,11.58,20.98,13.42,25.16c1.43,3.26,4.8,6.71,7.55,6.8c0.79,0.03,6.26,0.97,6.88,0.36
					c2.82-2.72,50.88-47.39,51.76-48.59c0.88-1.2,3.04-4.63-1.12-11.41c-3.97-6.46-5.53-10.34-15.35-28.66
					c-0.52-0.97,3.32-3.48,2.21-4.01C687.34,318.34,682.97,318.49,681.42,319.11z"/>
				<path class="st5" d="M687.65,319.52c-1.88,0.75-55.28,46.29-58.48,48.84c-3.2,2.55-2.54,4.85,1.22,11.79
					c3.77,6.94,11.58,20.98,13.42,25.16c1.83,4.18,6.88,8.7,9.7,5.97c2.82-2.72,55.61-46.2,56.49-47.4
					c0.88-1.2,3.04-4.63-1.12-11.41c-3.96-6.46-5.52-10.34-15.35-28.66C692.39,321.64,690.47,318.4,687.65,319.52z"/>
				<path class="st5" d="M654.07,410.78c6.28-5.53,55.09-45.75,55.94-46.91c0.88-1.2,3.04-4.63-1.12-11.41
					c-3.96-6.46-5.53-10.34-15.35-28.66c-0.46-0.85-1.03-1.87-1.73-2.73c-9.9,7.81-53.66,45.11-56.54,47.42
					c-3.2,2.55-2.54,4.85,1.23,11.79c3.77,6.94,11.58,20.98,13.42,25.16C650.77,407.41,652.35,409.45,654.07,410.78z"/>
				<path class="st8" d="M645.24,385.45c-0.89-1.67-2.95-2.03-4.6-0.8c-1.65,1.23-2.27,3.59-1.39,5.27c0.89,1.67,2.94,2.03,4.6,0.8
					C645.51,389.49,646.13,387.13,645.24,385.45z"/>
				<path class="st8" d="M701.1,351.62c-0.12-0.14-4.36-8.27-4.55-8.6c-0.18-0.34-0.09-0.47,0.3-0.79c0.39-0.32,1.2-0.95,1.4-1.16
					c0.21-0.21,0.65-0.29,0.8,0.04c0.15,0.33,4.39,8.28,4.43,8.41c0.04,0.13,0.14,0.47-0.28,0.76c-0.4,0.27-0.58,0.47-1.61,1.32
					C701.48,351.69,701.28,351.83,701.1,351.62z"/>
				<path class="st8" d="M695.43,340.92c-0.12-0.14-1.07-2.04-1.25-2.38c-0.18-0.33-0.1-0.47,0.3-0.78c0.39-0.32,1.2-0.95,1.4-1.16
					c0.21-0.21,0.65-0.29,0.8,0.03c0.16,0.33,1.09,2.06,1.13,2.18c0.04,0.13,0.13,0.47-0.28,0.76c-0.4,0.27-0.58,0.48-1.6,1.32
					C695.81,340.99,695.62,341.14,695.43,340.92z"/>
				<path class="st12" d="M683.77,330.46c-1.45,0.58-39.99,33.42-42.47,35.39c-2.47,1.97-1.97,3.75,0.95,9.11
					c2.91,5.36,8.95,16.21,10.37,19.44c1.42,3.23,5.32,6.72,7.5,4.61c2.18-2.1,40.25-33.35,40.93-34.28
					c0.68-0.93,2.35-3.57-0.86-8.82c-3.06-4.99-4.27-7.99-11.86-22.15C687.43,332.1,685.95,329.6,683.77,330.46z"/>
				<path class="st10" d="M643.69,371.53c0.02,0.07-0.03,0.15-0.1,0.16c-0.07,0.02-0.14-0.03-0.16-0.1
					c-0.17-0.68,0.02-1.18,0.33-1.46c0.19-0.17,0.43-0.26,0.65-0.24c0.23,0.01,0.45,0.13,0.6,0.35c0.2,0.31,0.25,0.83-0.03,1.6
					c0.34-0.19,0.69-0.3,1.17-0.04c0.6,0.32,0.63,0.8,0.39,1.26c-0.17,0.32-0.49,0.63-0.83,0.82c-0.35,0.2-0.73,0.29-1.01,0.17
					c-0.37-0.15-0.54-0.63-0.22-1.63c-0.25,0.11-0.55,0.19-0.92,0.14c-0.07-0.01-0.13-0.08-0.12-0.15c0.01-0.07,0.08-0.13,0.15-0.12
					c0.42,0.05,0.74-0.09,1.02-0.24l0.05-0.13c0.32-0.77,0.3-1.27,0.12-1.53c-0.09-0.15-0.23-0.22-0.38-0.23
					c-0.16-0.01-0.32,0.05-0.46,0.18C643.7,370.55,643.55,370.96,643.69,371.53L643.69,371.53z M653.77,389.79
					c0.03,0.07,0,0.15-0.06,0.18c-0.07,0.03-0.15,0.01-0.18-0.06c-0.48-0.99-0.32-1.85,0.08-2.38c0.14-0.18,0.31-0.33,0.48-0.43
					c0.18-0.1,0.38-0.16,0.56-0.16h0.01c0.35,0,0.68,0.21,0.86,0.65c0.07,0.17,0.15,0.4,0.24,0.64c0.37,1.02,0.85,2.35,1.72,3.01
					c0.05-0.45,0.08-0.72,0.15-0.97v0c0.08-0.31,0.21-0.57,0.45-1.07c0.12-0.25,0.27-0.56,0.47-0.99l0-0.01
					c0.04-0.09,0.1-0.16,0.16-0.21c0.11-0.08,0.25-0.1,0.38-0.06c0.12,0.03,0.24,0.11,0.35,0.2c0.2,0.18,0.39,0.44,0.49,0.67
					c0.09,0.22,0.13,0.44,0.14,0.67l0,0.01c0.01,0.56-0.2,1.12-0.46,1.56c-0.26,0.45-0.58,0.78-0.76,0.85
					c-0.04,0.02-0.07,0.03-0.1,0.03h-0.01c-0.39,0.01-0.73-0.08-1.04-0.23l-0.08,0.89c-0.02,0.24-0.34,0.47-0.73,0.55
					c-0.15,0.03-0.31,0.04-0.47,0.02c-0.16-0.02-0.33-0.07-0.47-0.16c-0.37-0.22-0.63-0.69-0.54-1.54c0.03-0.22,0.04-0.42,0.05-0.61
					c0.01-0.2,0.02-0.4,0.05-0.6c0.01-0.07,0.08-0.13,0.15-0.12c0.07,0.01,0.13,0.08,0.12,0.15c-0.02,0.21-0.03,0.4-0.05,0.59
					c-0.01,0.2-0.03,0.4-0.05,0.62c-0.08,0.72,0.12,1.11,0.41,1.28c0.11,0.06,0.24,0.1,0.37,0.12c0.13,0.01,0.27,0.01,0.39-0.02
					c0.28-0.06,0.5-0.19,0.52-0.32l0.09-1.01c-1.01-0.68-1.54-2.13-1.94-3.24c-0.08-0.22-0.16-0.42-0.24-0.63
					c-0.13-0.33-0.37-0.48-0.62-0.48c-0.14,0-0.29,0.04-0.43,0.12c-0.15,0.08-0.28,0.21-0.4,0.36
					C653.48,388.15,653.33,388.9,653.77,389.79L653.77,389.79z M657.72,391.41c0.29,0.17,0.63,0.26,1.01,0.26l0.01-0.01
					c0.14-0.06,0.4-0.34,0.64-0.74c0.24-0.4,0.43-0.92,0.43-1.42l0-0.01c-0.01-0.2-0.04-0.39-0.12-0.57
					c-0.08-0.21-0.24-0.43-0.41-0.58c-0.09-0.07-0.17-0.13-0.25-0.15c-0.06-0.02-0.11-0.01-0.15,0.01
					c-0.03,0.02-0.06,0.06-0.08,0.11l0,0.01c-0.19,0.41-0.34,0.73-0.47,0.99c-0.23,0.48-0.35,0.73-0.43,1.02l0,0
					C657.81,390.6,657.77,390.9,657.72,391.41L657.72,391.41z M657.88,390.34l-0.16,0.09C657.79,390.45,657.86,390.41,657.88,390.34
					L657.88,390.34z M650.49,379.07c0.06-0.04,0.15-0.02,0.18,0.05c0.04,0.06,0.02,0.15-0.05,0.18l-0.03,0.02
					c-0.08,0.05-0.23,0.15-0.41,0.27c0.28,0.41,0.75,1.08,1.14,1.63l0.27,0.37l0.49-0.61l0.07-0.09c0.1-0.14,0.13-0.19,0.33-0.15
					c0.19-0.5,0.38-1.06,0.5-1.5l0.26,0.07c-0.13,0.47-0.34,1.09-0.55,1.63l0,0.01l-0.01,0.02l-0.07,0.18
					c-0.25,0.61-0.49,1.1-0.63,1.15c-0.03,0.01-0.06,0.01-0.09,0l-0.01,0c-0.02-0.01-0.04-0.02-0.06-0.04
					c-0.06-0.05-0.14-0.13-0.23-0.24c-0.47,0.59-1.05,1.3-1.3,1.57c-0.01,0.06-0.06,0.11-0.12,0.11c-0.08,0.01-0.14-0.05-0.15-0.12
					c-0.04-0.44-0.68-1.42-1.12-2.09l-0.31-0.48c-0.16-0.27,0.24-0.71,0.73-1.11c0.16-0.13,0.33-0.26,0.49-0.38
					c-0.09-0.13-0.14-0.21-0.14-0.22c-0.03-0.07,0.01-0.15,0.08-0.17c0.07-0.02,0.15,0.01,0.17,0.08c0,0.01,0.04,0.07,0.1,0.16
					c0.19-0.13,0.34-0.23,0.42-0.28L650.49,379.07L650.49,379.07z M649.98,379.75c-0.15,0.11-0.31,0.23-0.46,0.36
					c-0.39,0.32-0.73,0.65-0.67,0.77c0.08,0.13,0.18,0.29,0.3,0.47c0.39,0.6,0.94,1.44,1.11,1.98c0.21-0.26,0.72-0.96,1.17-1.53
					c-0.1-0.13-0.21-0.27-0.32-0.43C650.72,380.84,650.27,380.18,649.98,379.75L649.98,379.75z M652.36,381.07l-0.07,0.08
					l-0.53,0.66c0.07,0.09,0.13,0.16,0.16,0.2C652.01,381.91,652.18,381.53,652.36,381.07L652.36,381.07z M649.33,378.63
					c-0.07-0.01-0.12-0.08-0.11-0.15c0.01-0.07,0.08-0.13,0.15-0.12c0.21,0.03,0.82,0,1.48-0.03c1.13-0.06,2.42-0.12,2.51,0.14
					l0,0.01L649.33,378.63L649.33,378.63z M650.86,378.6l-1.53,0.03C649.57,378.66,650.18,378.63,650.86,378.6L650.86,378.6z
					 M653.1,378.56c-0.02-0.07-1.21-0.01-2.24,0.04L653.1,378.56L653.1,378.56z M653.1,378.57L653.1,378.57L653.1,378.57
					L653.1,378.57z M652.99,379.24c0.09-0.34,0.14-0.59,0.12-0.68L652.99,379.24L652.99,379.24z M644.83,372.24
					c-0.38,1-0.29,1.45-0.03,1.56c0.2,0.08,0.49,0.01,0.78-0.16c0.3-0.17,0.58-0.43,0.73-0.71c0.17-0.32,0.15-0.66-0.28-0.89
					c-0.44-0.24-0.76-0.05-1.12,0.16L644.83,372.24z"/>
			</g>
			<path class="st8" d="M814.2,468.45c-29.59-22.38-56.56-18.99-98.34-23c-21.9,1.4-35.1,13.33-42.88,31.16l-0.06,0.13l-0.06,0.14
				l-0.18,0.41l-0.06,0.14l-0.04,0.09l-0.02,0.05l-0.06,0.14l-0.23,0.55l-0.06,0.14l-0.05,0.11l-0.01,0.03l-0.06,0.14l-0.06,0.14
				l-0.17,0.42l-0.06,0.14l-0.01,0.03l-0.1,0.25l-0.05,0.14l-0.22,0.56l-0.05,0.14l-0.01,0.02l-0.04,0.12l-0.32,0.86l-0.02,0.04
				l-0.03,0.1l-0.05,0.15l-0.25,0.72l-0.03,0.07l-0.03,0.07c-0.22,0.63-0.43,1.26-0.64,1.9l-0.04,0.12l-0.01,0.03
				c-0.11,0.34-0.22,0.69-0.33,1.04l-0.02,0.01c-13.52,31.52-36.1,44.45-6.57,84.46l0.19,0.26l0,0l0,0l0,0l0.02,0.47l0.02,0.47
				c2.86,69.18-2.09,98.51-5.67,155.7h147.67c-11.56-44.08-30.08-85.11-27.1-122.32C783,544.42,829.55,523.21,814.2,468.45z"/>
			<path class="st5" d="M740.32,447.3l-1.1,9.51c0,0,58-0.85,57.62,34.01c-0.38,34.86-26.56,52.29-44.69,69.04
				c-19.86,11.6-97.08-2.1-98.6-5.7c0.09,0.23,0.08,0.49,0,0.76c2.26,4.65,5.36,9.7,9.47,15.28l0.19,0.26l0,0l0,0l0,0l0.02,0.47
				l0.02,0.47c0.09,2.09,0.16,4.14,0.24,6.16c0.04,0,0.07,0.02,0.07,0.07c43.51-2.64,83.27,5.69,93.98,54.08
				c5.19,23.45-4.99,64.98-17.63,95.39h65.35c-11.56-44.08-30.08-85.11-27.1-122.32c4.83-60.36,51.39-81.58,36.04-136.34
				C790.81,450.75,769.05,449.17,740.32,447.3z"/>
			<path class="st8" d="M813.89,467.41c15.47,21.94,62.86,93.03,75.13,66.07c18.2-30.35,41.57-57.85,47.72-70.99
				c1.49-3.18,8,5.83,10,6.58c3.26,1.22,10.19,0.63,9.08,3.99c-8.09,21.91-49.81,99.5-55.34,106.27
				c-15.26,18.66-37.7,10.86-49.75,0.76c-16.54-13.86-37.64-30.01-55.79-50.6L813.89,467.41z"/>
			<path class="st5" d="M809.54,463.66c5.49,7.8,10.04,13.68,16.27,22.36c-6.24,12.25-4.88,57.11,10.48,72.49
				c51.87,51.93,79.17-15.14,100.39-61.78c7.85-17.24,0.8-21.74-3.42-26.75c0.3-0.64,3.72-8.01,4.56-8.42
				c6.41-3.06,23.6,7.11,21.48,10.89c-8.09,21.91-54.13,104.72-59.67,111.48c-8.58,10.5-21.34,15.47-38.74,5.02
				c-27.1-16.28-59.14-51.73-65.96-59.47L809.54,463.66z"/>
			<g>
				<path class="st18" d="M755.13,391.56l-2.41,13.64c0,0-3.74,28.09-4.31,32.36c-0.57,4.27,2.51,12.27,14.83,14.5
					c10.07,1.82-25.4,14.75-45.91,9.6c-21.22-5.32-25.42-23.19-17.11-23.93c2.59-0.23,5.38-2.06,7.1-3.49
					c5.37-4.49,8.2-27.35,4.31-33.95C707.72,393.7,755.13,391.56,755.13,391.56z"/>
				<path class="st10" d="M683.32,320.18c2.74-31.11,22.25-67.27,62.35-70.26c40.1-3,81.33,18.26,87.89,69.78
					c4.31,33.81-3.14,73.46-6.64,106.15l0,0c-5.84,31.44,4.27,49.52-2.23,58.7c-10.87-19.3-29.62-21.51-29.62-21.51v0.01
					c-6.14-0.96-11.94,1.81-16.13,10.2c-48.76,97.57-137.87,72.39-115.43-9.83c10.55-38.64,8.91-22.76,15.25-94.83
					C679.95,355.02,681.59,339.78,683.32,320.18z"/>
				<path class="st19" d="M690,333.7c0,0,0.24-1.82,0.6-4.49c0.17-1.27,0.36-2.73,0.57-4.27c0.38-2.82,0.79-5.93,1.16-8.68
					c0.99-7.4,11.61-29.74,38.58-34.26c26.97-4.52,53.48,20.45,62.82,41.69c9.34,21.23,6.7,34.5,8.64,37.36
					c1.94,2.87,10.3-18.62-3.04-51.1c0,0-1.01-3.86,0.54-5.29c1.55-1.43,18.09,22.23,17.38,68.31
					c-0.71,46.08-31.16,78.96-79.8,81.17c-48.64,2.21-59.3-37.8-53.78-79.18l40.52-27.16L690,333.7z"/>
				<path class="st13" d="M792.41,370.49l-2.66,16.8c-4.6,29.04-32.12,49.03-61.15,44.43l0,0c-29.04-4.6-49.03-32.12-44.44-61.15
					l6.62-41.83l0,0c0,0,5.35-28.26,31.94-34.85C749.31,287.29,798.18,327.05,792.41,370.49z"/>
				<path class="st14" d="M792.41,370.49l-2.66,16.8c-4.6,29.04-32.12,49.03-61.15,44.43l0,0c40.04,4.22,63.81-61.23,51.58-84.68
					c-12.23-23.44-37.48-30.51-37.48-30.51l6.5-8.11c0,0,6.06-0.15,15.16,0.18C781.82,323.13,795.63,346.23,792.41,370.49z"/>
				<path class="st15" d="M693.61,320.07c3.79-8.88,12.1-21.96,29.11-26.18c20.03-4.97,52.69,16.37,65.13,45.76
					C727.44,298.33,700.53,315.67,693.61,320.07z"/>
				<g>
					<path class="st15" d="M735.77,394.26c-1.04,7.56-8.02,12.86-15.58,11.81c-7.56-1.04-12.85-8.02-11.81-15.58l0.02,0
						c0.18-1.3,1.39-2.22,2.69-2.04l22.62,3.11c1.3,0.18,2.22,1.39,2.04,2.69L735.77,394.26z"/>
					<path class="st20" d="M729.2,404.23c-2.61,1.57-5.76,2.3-9.01,1.85c-2.66-0.36-5.04-1.46-6.95-3.06
						c1.44-2.67,4.8-4.35,8.53-3.98C725.31,399.39,728.17,401.51,729.2,404.23z"/>
					<path class="st10" d="M710.78,388.44l21.26,2.92c0.01,2.4-1.4,4.62-3.05,4.92c-2.01,0.36-17.34-2.15-18.26-3.51
						C710.28,392.12,710.47,390.22,710.78,388.44z"/>
				</g>
				<path class="st19" d="M686.3,472.42c17.16,23.81,47.18,6.36,68.79-4.85c5.54-2.87,5.44-2.13,2.09,3.16
					C735.02,505.71,687.72,512.76,686.3,472.42z"/>
			</g>
		</g>
		<path class="st13" d="M634.35,357.68c5.45-3.22,6.57-5.73,9.23-1.54c2.66,4.2,11.68,1.9,9.79-1.4c-2.79-4.87-2.33-4.54,0.37-3.62
			c7.06,2.41,13.4-1,9.01-6.17c0,0,7.69,2.1,9.37-1.26c1.68-3.36-1.96-6.99-1.96-6.99s-0.21-1.96,1.13-2.08
			c1.84-0.17,2.85,3.61,6.56,1.25c2.08-1.33-0.56-8.39-3.64-9.79c-3.08-1.4-11.89-1.82-14.41-0.7c-2.52,1.12-3.22,5.17-3.22,5.17
			c-5.88-0.86-8.71,0.69-9.23,6.15c-0.19,1.94-5.17,1.28-6.7,3.64c-0.86,1.33,1.71,7.26-1.41,7.13
			C636.03,347.34,635.61,351.81,634.35,357.68z"/>
		<g>
			<path class="st13" d="M930.77,450.1c-1.36-7.16-8.11-23.07-9.74-24.75c-2.14-2.23,9.17-9.03,13.18,1.71c0,0,5.29,7.13,7.35,5.94
				c2.06-1.19,6.06-28.75,6.41-32.19c0.35-3.44,5.04-3.71,6.1-2.74c1.07,0.97,0.09,5.39-0.2,11.74c-0.28,6.35-0.52,10.29,0.02,10.92
				c1.52,1.78,9.12-21.6,11.82-23.11c1.7-0.96,7.08,1.35,6.8,4.57c-0.28,3.22-8.7,22.27-9.01,25.06c-0.3,2.78,1.34,1.25,2.58-0.26
				c1.24-1.52,12.59-20.47,14.14-21.42c1.56-0.95,6.52,1.92,5.37,5.18c-1.16,3.26-11.91,22.28-11.83,23.88
				c0.08,1.6,1.19,1.41,4.72-1.09c3.52-2.5,10.51-7.66,12.52-7.17c1.31-0.06,3.03,3.93-0.1,7.14c-3.13,3.21-10.6,11.44-11.56,12.79
				c-5.04,7.16-7.61,15.05-12.32,20.1c-1.7,1.83-3.92,3.21-6.42,4.14C945.3,476.27,933.58,464.87,930.77,450.1z"/>
			<path class="st14" d="M968.09,465.17c-0.34,0.42-0.69,0.84-1.06,1.23c-1.56,1.68-3.56,2.98-5.81,3.91
				c-0.2,0.08-0.4,0.16-0.61,0.24c-10.06,3.76-18.57,0.13-24.02-6.98c-2.85-3.72-4.86-8.39-5.82-13.46
				c-0.03-0.17-0.07-0.35-0.11-0.53C937.35,464.25,952.84,469.94,968.09,465.17z"/>
		</g>
	</g>
	<g>
		<rect x="353.4" y="637" class="st21" width="16.01" height="19.73"/>
		<path class="st22" d="M361.66,641.08c1.98,0,3.61,1.62,3.61,3.6v4.63h4.15v-10.9h-13.75c-0.79,0-1.54,0.04-2.26,0.11v2.55H361.66z
			"/>
		<rect x="313.37" y="637" class="st21" width="16.01" height="19.73"/>
		<path class="st11" d="M303.34,698.34h37.78h37.78c1.6,0,2.69-1.31,2.43-2.9l-7.08-43.21c-0.26-1.6-1.78-2.91-3.38-2.91h-29.74
			h-29.74c-1.6,0-3.12,1.31-3.38,2.91l-7.09,43.21C300.65,697.03,301.74,698.34,303.34,698.34z"/>
		<path class="st8" d="M341.39,695.68h40.21c1.57,0,3.82,1.28,5,2.85l5.8,7.68h-51.01h-51.01l5.8-7.68c1.18-1.57,3.44-2.85,5-2.85
			H341.39z"/>
		<path class="st23" d="M367.99,654.01l0.45,2.72l6.39,38.95h6.53c-0.01-0.08-0.02-0.16-0.03-0.25l-7.08-43.21
			c-0.26-1.6-1.78-2.91-3.38-2.91h-1.45h-4.15H353.4h-12.28h-11.74h-4.15h-11.86h-1.99c-1.2,0-2.36,0.74-2.97,1.79h4.97h16.01h5.49
			h18.54h11.21C366.21,651.11,367.73,652.42,367.99,654.01L367.99,654.01z M343.04,653.67c11.13,0,20.15,9.02,20.15,20.15
			c0,11.13-9.02,20.15-20.15,20.15c-11.13,0-20.15-9.02-20.15-20.15C322.88,662.69,331.91,653.67,343.04,653.67z"/>
		<path class="st24" d="M292.71,705.01h97.37c1.57,0,2.85,1.28,2.85,2.85v8.01c0,1.57-1.28,2.85-2.85,2.85h-97.37
			c-1.57,0-2.85-1.28-2.85-2.85v-8.01C289.86,706.29,291.14,705.01,292.71,705.01z"/>
		<circle class="st10" cx="341.19" cy="672.42" r="20.15"/>
		<path class="st7" d="M341.19,682.18c5.38,0,9.76-4.39,9.76-9.76c0-5.38-4.39-9.76-9.76-9.76c-5.38,0-9.76,4.39-9.76,9.76
			C331.42,677.79,335.81,682.18,341.19,682.18z"/>
		<path class="st25" d="M350.93,671.77c0.01,0.21,0.02,0.43,0.02,0.65c0,1.12-0.19,2.2-0.54,3.2h-9.23c-1.06,0-1.92-0.86-1.92-1.92
			c0-1.06,0.86-1.93,1.92-1.93H350.93z"/>
		<path class="st25" d="M341.19,667.74c2.59,0,4.68,2.09,4.68,4.68c0,2.58-2.1,4.68-4.68,4.68c-2.58,0-4.68-2.1-4.68-4.68
			C336.51,669.83,338.6,667.74,341.19,667.74z"/>
		<path class="st26" d="M341.19,659.57c1.19,0,2.16-0.97,2.16-2.16c0-1.19-0.97-2.16-2.16-2.16c-1.19,0-2.16,0.97-2.16,2.16
			C339.03,658.6,340,659.57,341.19,659.57z"/>
		<path class="st26" d="M353.32,660.28c0.84,0.84,0.84,2.21,0,3.05c-0.84,0.84-2.21,0.84-3.05,0c-0.84-0.84-0.84-2.21,0-3.05
			C351.11,659.43,352.48,659.43,353.32,660.28z"/>
		<path class="st26" d="M353.32,684.56c-0.84,0.84-2.21,0.84-3.05,0c-0.84-0.84-0.84-2.21,0-3.06c0.84-0.84,2.21-0.84,3.05,0
			C354.17,682.34,354.17,683.71,353.32,684.56z"/>
		<path class="st26" d="M341.19,689.58c-1.19,0-2.16-0.97-2.16-2.16c0-1.19,0.97-2.16,2.16-2.16c1.19,0,2.16,0.97,2.16,2.16
			C343.35,688.62,342.38,689.58,341.19,689.58z"/>
		<path class="st26" d="M329.05,684.56c-0.84-0.84-0.84-2.21,0-3.06c0.84-0.84,2.21-0.84,3.05,0c0.84,0.84,0.84,2.21,0,3.06
			C331.26,685.4,329.89,685.4,329.05,684.56z"/>
		<path class="st26" d="M324.02,672.42c0-1.19,0.97-2.16,2.16-2.16c1.19,0,2.16,0.97,2.16,2.16s-0.97,2.16-2.16,2.16
			C324.99,674.58,324.02,673.61,324.02,672.42z"/>
		<path class="st26" d="M329.05,660.28c0.84-0.84,2.21-0.84,3.05,0c0.84,0.84,0.84,2.21,0,3.05c-0.84,0.84-2.21,0.84-3.05,0
			C328.21,662.49,328.21,661.12,329.05,660.28z"/>
		<path class="st8" d="M341.19,674.34c-1.06,0-1.92-0.86-1.92-1.92c0-1.06,0.86-1.93,1.92-1.93h15.01c1.06,0,1.92,0.86,1.92,1.93
			c0,1.06-0.86,1.92-1.92,1.92H341.19z"/>
		<path class="st24" d="M366.61,638.42c10.54,0,14.12,6.86,14.12,12.28l1.76,3.05h22.41l1.51-1.66c0,0,0-4.66,0-7.43
			c0-2.77,0.54-19.03-24.54-19.03h-40.74h-40.74c-25.08,0-24.54,16.26-24.54,19.03c0,2.77,0,7.43,0,7.43l1.51,1.66h22.41l1.76-3.05
			c0-5.42,3.57-12.28,14.12-12.28h25.49H366.61z"/>
		<path class="st10" d="M302.22,650.7h-27.81c-0.97,0-1.77,0.95-1.77,2.1v10.37c0,1.16,0.8,2.1,1.77,2.1h27.81
			c0.97,0,1.76-0.94,1.76-2.1V652.8C303.98,651.65,303.19,650.7,302.22,650.7z"/>
		<path class="st22" d="M321.63,641.08c1.98,0,3.61,1.62,3.61,3.6v4.63h4.15v-10.9h-13.75c-0.79,0-1.54,0.04-2.26,0.11v2.55H321.63z
			"/>
		<path class="st8" d="M389.23,711.53c0,1.57-1.28,2.85-2.85,2.85h-96.52v1.49c0,0.5,0.13,0.97,0.36,1.38h102.36
			c0.23-0.41,0.36-0.88,0.36-1.38v-8.01c0-0.61-0.2-1.18-0.53-1.64c0,0,0,0,0,0l-0.1-0.13c-0.52-0.65-1.33-1.08-2.23-1.08h-0.85
			v1.21V711.53z"/>
		<path class="st8" d="M341.12,638.42h12.28h2.26h10.95c1,0,1.93,0.06,2.8,0.18c8.38,1.11,11.31,7.19,11.31,12.1h7.13l-0.1-0.16
			c0-6.17-4.07-13.98-16.07-13.98h-29.02h-29.02c-12,0-16.07,7.81-16.07,13.98l-0.09,0.16h4.02c0-5.01,3.06-11.25,11.86-12.16
			c0.71-0.07,1.47-0.11,2.26-0.11h13.75H341.12z"/>
		<path class="st27" d="M294.67,652.84h-17.08c-0.6,0-1.09,0.49-1.09,1.09v5.36c0,0.6,0.49,1.09,1.09,1.09h17.08
			c0.6,0,1.08-0.49,1.08-1.09v-5.36C295.75,653.33,295.26,652.84,294.67,652.84z"/>
		<path class="st27" d="M300.68,652.14v8.52c0,1.16-0.8,2.1-1.77,2.1h-26.27v0.41c0,1.16,0.8,2.1,1.77,2.1h27.81
			c0.97,0,1.76-0.94,1.76-2.1V652.8c0-1.15-0.79-2.1-1.76-2.1h-0.71h-0.83V652.14z"/>
		<path class="st10" d="M407.82,650.7h-27.8c-0.97,0-1.77,0.95-1.77,2.1v10.37c0,1.16,0.79,2.1,1.77,2.1h27.8
			c0.97,0,1.77-0.94,1.77-2.1V652.8C409.59,651.65,408.8,650.7,407.82,650.7z"/>
		<path class="st27" d="M400.27,652.84h-17.08c-0.6,0-1.08,0.49-1.08,1.09v5.36c0,0.6,0.49,1.09,1.08,1.09h17.08
			c0.6,0,1.09-0.49,1.09-1.09v-5.36C401.36,653.33,400.87,652.84,400.27,652.84z"/>
		<path class="st27" d="M406.28,652.14v8.52c0,1.16-0.79,2.1-1.76,2.1h-26.27v0.41c0,1.16,0.79,2.1,1.77,2.1h27.8
			c0.97,0,1.77-0.94,1.77-2.1V652.8c0-1.15-0.79-2.1-1.77-2.1h-0.71h-0.83V652.14z"/>
	</g>
	<path class="st10" d="M948.58,551.11h61.42c1.4,0,2.68,0.5,3.68,1.33c0.27,0.12,0.52,0.3,0.71,0.55c0.11,0.14,0.2,0.3,0.26,0.46
		c0.72,0.97,1.15,2.16,1.15,3.46V593c0,1.59-0.65,3.04-1.7,4.09v0.01c-1.05,1.05-2.5,1.7-4.1,1.7h-61.42c-1.6,0-3.05-0.65-4.1-1.7
		c-1.05-1.05-1.7-2.5-1.7-4.1v-36.1c0-1.3,0.43-2.5,1.16-3.47c0.06-0.16,0.14-0.31,0.25-0.45c0.19-0.25,0.44-0.44,0.71-0.55
		C945.9,551.6,947.18,551.11,948.58,551.11L948.58,551.11z M1010.79,595.14l-24.34-18.59l-6.07,4.64l0,0l-0.02,0.01
		c-0.05,0.04-0.1,0.07-0.15,0.1l-0.01,0.01l-0.03,0.02l-0.01,0.01l-0.03,0.02l-0.01,0l-0.03,0.02l0,0l-0.03,0.02l-0.01,0l-0.04,0.02
		l0,0l-0.04,0.01l0,0l-0.04,0.02h0c-0.07,0.03-0.13,0.05-0.2,0.07l0,0c-0.07,0.02-0.14,0.03-0.21,0.04l-0.01,0l-0.04,0l0,0l-0.04,0
		h0l-0.08,0.01h0l-0.04,0h0h-0.04h0l-0.04,0h-0.01l-0.08-0.01h-0.01l-0.04,0l-0.01,0l-0.04,0l0,0c-0.07-0.01-0.14-0.02-0.21-0.04
		l0,0c-0.07-0.02-0.13-0.04-0.2-0.07h0l-0.04-0.02l0,0l-0.04-0.01l0,0l-0.04-0.02l0,0l-0.03-0.02l-0.01,0l-0.03-0.02l-0.01,0
		l-0.03-0.02l-0.01-0.01l-0.03-0.02l-0.01-0.01c-0.05-0.03-0.1-0.07-0.15-0.1l-0.02-0.01l-0.01,0l-6.07-4.64l-24.34,18.59
		c0.25,0.09,0.51,0.15,0.79,0.15h61.42C1010.27,595.28,1010.54,595.23,1010.79,595.14L1010.79,595.14z M988.62,574.89l23.65,18.07
		v-36.04l0-0.09L988.62,574.89L988.62,574.89z M946.3,592.95l23.65-18.07l-23.65-18.07l0,0.09V592.95L946.3,592.95z M979.28,577.59
		l30.06-22.96h-60.12L979.28,577.59z"/>
	<path class="st7" d="M210.14,260.48h96.81c7.03,0,12.79,5.75,12.79,12.78v52.72v3.9v33.56c0,0.59-0.34,1.09-0.88,1.32
		c-0.54,0.23-1.14,0.11-1.56-0.31l-21.79-21.79h-85.37c-7.03,0-12.79-5.75-12.79-12.79v-56.63
		C197.36,266.23,203.11,260.48,210.14,260.48z"/>
	<g>
		<path class="st10" d="M230.02,308.62c3.88,0,7.04-3.16,7.04-7.04c0-3.88-3.16-7.04-7.04-7.04c-3.88,0-7.04,3.16-7.04,7.04
			C222.98,305.46,226.14,308.62,230.02,308.62z"/>
		<path class="st10" d="M258.55,308.62c3.88,0,7.04-3.16,7.04-7.04c0-3.88-3.16-7.04-7.04-7.04c-3.88,0-7.04,3.16-7.04,7.04
			C251.51,305.46,254.67,308.62,258.55,308.62z"/>
		<path class="st10" d="M287.07,308.62c3.88,0,7.04-3.16,7.04-7.04c0-3.88-3.16-7.04-7.04-7.04s-7.04,3.16-7.04,7.04
			C280.03,305.46,283.19,308.62,287.07,308.62z"/>
	</g>
	<g>
		<path class="st26" d="M781.54,512.75H546.77c-2.97,0-5.89,2.43-6.49,5.4l-29.91,147.66c-0.24,1.2-0.07,2.31,0.41,3.2
			c0.96,1.79,5.05,6.27,6.11,6.22l226.51-9.57c2.96-0.12,5.67-2.5,6.5-5.4l40.13-141.01c0.02-0.05-4.53-4.86-5.92-5.77
			C783.4,513.01,782.53,512.75,781.54,512.75z"/>
		<path class="st10" d="M786.51,517.64H551.74c-2.97,0-5.89,2.43-6.49,5.4L515.34,670.7c-0.6,2.97,1.34,5.4,4.31,5.4h234.78
			c2.97,0,5.89-2.43,6.49-5.4l29.91-147.66C791.42,520.07,789.48,517.64,786.51,517.64z"/>
		<path class="st28" d="M726.4,579.45H623.03c-2.27,0-4.48,1.86-4.9,4.13l-12.77,68.74c-0.42,2.27,1.09,4.13,3.36,4.13h103.37
			c2.27,0,4.48-1.86,4.9-4.13l12.77-68.74C730.18,581.31,728.67,579.45,726.4,579.45z"/>
		<path class="st29" d="M671.33,613.53h-30.44c-3.75,0-6.07,3.07-5.16,6.81l21.1,87.02c0.91,3.75,4.72,6.81,8.47,6.81h30.44
			c3.75,0,6.07-3.07,5.16-6.81l-21.1-87.02C678.89,616.59,675.08,613.53,671.33,613.53z"/>
		<path class="st10" d="M681.85,613.53h-30.44c-3.75,0-6.07,3.07-5.16,6.81l21.1,87.02c0.91,3.75,4.72,6.81,8.47,6.81h30.44
			c3.75,0,6.07-3.07,5.16-6.81l-21.11-87.02C689.41,616.59,685.6,613.53,681.85,613.53z"/>
		<path class="st10" d="M745.38,725.02H608.71c-4.46,0-8.1-3.65-8.1-8.1l0,0c0-4.46,3.65-8.1,8.1-8.1h136.67
			c4.46,0,8.1,3.65,8.1,8.1l0,0C753.49,721.37,749.84,725.02,745.38,725.02z"/>
		<path class="st29" d="M636.05,725.02h-51.03c-4.46,0-8.11-3.65-8.11-8.1l0,0c0-4.46,3.65-8.1,8.11-8.1h51.03
			c4.46,0,8.1,3.65,8.1,8.1l0,0C644.15,721.37,640.5,725.02,636.05,725.02z"/>
		<path class="st28" d="M758.84,530.66h-1.26c-1.03,0-2.02,0.84-2.21,1.87l-5.78,31.11c-0.19,1.03,0.5,1.87,1.52,1.87h1.26
			c1.03,0,2.03-0.84,2.22-1.87l5.78-31.11C760.56,531.5,759.87,530.66,758.84,530.66z"/>
		<path class="st28" d="M748.98,530.66h-1.26c-1.03,0-2.03,0.84-2.22,1.87l-5.78,31.11c-0.19,1.03,0.49,1.87,1.52,1.87h1.26
			c1.03,0,2.03-0.84,2.22-1.87l5.78-31.11C750.69,531.5,750,530.66,748.98,530.66z"/>
		<path class="st28" d="M739.1,530.66h-1.26c-1.03,0-2.02,0.84-2.22,1.87l-5.78,31.11c-0.19,1.03,0.49,1.87,1.52,1.87h1.26
			c1.03,0,2.03-0.84,2.22-1.87l5.78-31.11C740.82,531.5,740.13,530.66,739.1,530.66z"/>
		<path class="st28" d="M729.24,530.66h-1.26c-1.03,0-2.03,0.84-2.22,1.87l-5.78,31.11c-0.19,1.03,0.49,1.87,1.52,1.87h1.26
			c1.03,0,2.03-0.84,2.22-1.87l5.78-31.11C730.95,531.5,730.26,530.66,729.24,530.66z"/>
		<path class="st28" d="M719.36,530.66h-1.26c-1.03,0-2.03,0.84-2.22,1.87l-5.78,31.11c-0.19,1.03,0.49,1.87,1.52,1.87h1.26
			c1.03,0,2.03-0.84,2.22-1.87l5.78-31.11C721.08,531.5,720.39,530.66,719.36,530.66z"/>
		<path class="st28" d="M709.49,530.66h-1.26c-1.03,0-2.03,0.84-2.22,1.87l-5.78,31.11c-0.19,1.03,0.5,1.87,1.52,1.87h1.26
			c1.03,0,2.03-0.84,2.22-1.87l5.78-31.11C711.21,531.5,710.52,530.66,709.49,530.66z"/>
		<path class="st28" d="M699.62,530.66h-1.26c-1.03,0-2.03,0.84-2.22,1.87l-5.78,31.11c-0.19,1.03,0.49,1.87,1.52,1.87h1.26
			c1.03,0,2.03-0.84,2.22-1.87l5.78-31.11C701.33,531.5,700.65,530.66,699.62,530.66z"/>
		<path class="st28" d="M689.75,530.66h-1.26c-1.03,0-2.02,0.84-2.22,1.87l-5.78,31.11c-0.19,1.03,0.49,1.87,1.52,1.87h1.26
			c1.03,0,2.02-0.84,2.22-1.87l5.78-31.11C691.47,531.5,690.78,530.66,689.75,530.66z"/>
		<path class="st28" d="M679.88,530.66h-1.26c-1.03,0-2.03,0.84-2.22,1.87l-5.78,31.11c-0.19,1.03,0.49,1.87,1.52,1.87h1.26
			c1.03,0,2.03-0.84,2.22-1.87l5.78-31.11C681.6,531.5,680.91,530.66,679.88,530.66z"/>
		<path class="st28" d="M670.01,530.66h-1.26c-1.03,0-2.03,0.84-2.22,1.87l-5.78,31.11c-0.19,1.03,0.49,1.87,1.52,1.87h1.26
			c1.03,0,2.03-0.84,2.22-1.87l5.78-31.11C671.73,531.5,671.04,530.66,670.01,530.66z"/>
		<path class="st28" d="M660.14,530.66h-1.26c-1.03,0-2.03,0.84-2.22,1.87l-5.78,31.11c-0.19,1.03,0.49,1.87,1.52,1.87h1.26
			c1.03,0,2.03-0.84,2.22-1.87l5.78-31.11C661.85,531.5,661.17,530.66,660.14,530.66z"/>
		<path class="st28" d="M650.27,530.66h-1.26c-1.03,0-2.03,0.84-2.22,1.87l-5.78,31.11c-0.19,1.03,0.49,1.87,1.52,1.87h1.26
			c1.03,0,2.02-0.84,2.22-1.87l5.78-31.11C651.98,531.5,651.3,530.66,650.27,530.66z"/>
		<path class="st28" d="M640.4,530.66h-1.26c-1.03,0-2.03,0.84-2.22,1.87l-5.78,31.11c-0.19,1.03,0.49,1.87,1.52,1.87h1.26
			c1.03,0,2.03-0.84,2.22-1.87l5.78-31.11C642.12,531.5,641.43,530.66,640.4,530.66z"/>
		<path class="st28" d="M630.53,530.66h-1.26c-1.03,0-2.02,0.84-2.22,1.87l-5.78,31.11c-0.19,1.03,0.49,1.87,1.52,1.87h1.26
			c1.03,0,2.03-0.84,2.22-1.87l5.78-31.11C632.24,531.5,631.56,530.66,630.53,530.66z"/>
		<path class="st28" d="M620.66,530.66h-1.26c-1.03,0-2.02,0.84-2.22,1.87l-5.78,31.11c-0.19,1.03,0.49,1.87,1.52,1.87h1.26
			c1.03,0,2.02-0.84,2.22-1.87l5.78-31.11C622.37,531.5,621.69,530.66,620.66,530.66z"/>
		<path class="st28" d="M610.79,530.66h-1.26c-1.03,0-2.03,0.84-2.22,1.87l-5.78,31.11c-0.19,1.03,0.49,1.87,1.52,1.87h1.26
			c1.03,0,2.03-0.84,2.22-1.87l5.78-31.11C612.5,531.5,611.82,530.66,610.79,530.66z"/>
		<path class="st28" d="M600.92,530.66h-1.26c-1.03,0-2.03,0.84-2.22,1.87l-5.78,31.11c-0.19,1.03,0.49,1.87,1.52,1.87h1.26
			c1.03,0,2.03-0.84,2.22-1.87l5.78-31.11C602.63,531.5,601.95,530.66,600.92,530.66z"/>
		<path class="st28" d="M591.05,530.66h-1.26c-1.03,0-2.02,0.84-2.22,1.87l-5.78,31.11c-0.19,1.03,0.49,1.87,1.52,1.87h1.26
			c1.03,0,2.03-0.84,2.22-1.87l5.78-31.11C592.76,531.5,592.08,530.66,591.05,530.66z"/>
		<path class="st28" d="M581.18,530.66h-1.26c-1.03,0-2.03,0.84-2.22,1.87l-5.78,31.11c-0.19,1.03,0.49,1.87,1.52,1.87h1.26
			c1.03,0,2.03-0.84,2.22-1.87l5.78-31.11C582.89,531.5,582.21,530.66,581.18,530.66z"/>
	</g>
	<g>
		<path class="st10" d="M310.44,176.83c-1.53,4.3-4.67,7.63-8.5,10.02c-1.83,1.14-4.17,2.28-6.25,2.88
			c-0.98,0.28-2.01-0.28-2.29-1.26c-0.06-0.23-0.09-0.46-0.06-0.7c0.19-1.89,0.19-3.81-0.06-5.7c-0.14-1.05-0.35-2.1-0.65-3.12
			c-8.38-1.13-16.06-5.19-21.73-11.47c-5.96-6.59-9.22-15.08-9.22-23.97c0-9.51,3.75-18.56,10.47-25.29
			c6.73-6.73,15.77-10.47,25.28-10.47c9.52,0,18.56,3.75,25.29,10.47c6.73,6.73,10.47,15.77,10.47,25.29
			c0,7.36-2.24,14.49-6.47,20.51C322.67,169.79,317,174.26,310.44,176.83L310.44,176.83z M297.16,185.22
			c4.5-2.01,8.59-5.49,10.01-10.34c0.17-0.57,0.59-1.02,1.15-1.22c6.2-2.24,11.58-6.37,15.36-11.77c3.79-5.4,5.79-11.79,5.79-18.38
			c0-8.53-3.36-16.63-9.39-22.66c-6.03-6.03-14.13-9.39-22.66-9.39c-8.53,0-16.63,3.36-22.66,9.39c-6.03,6.03-9.39,14.13-9.39,22.66
			c0,7.97,2.92,15.58,8.26,21.48c5.33,5.9,12.64,9.62,20.56,10.41c0.71,0.07,1.32,0.54,1.56,1.22c0.58,1.6,0.97,3.27,1.19,4.96
			C297.1,182.79,297.17,184.01,297.16,185.22z"/>
		<path class="st10" d="M310.92,124.83c-0.82-1.9-2.36-3.87-4.96-5.52c-0.99,0.86-3.68,3.63-5.38,9.49
			c1.47,0.98,5.53,4.08,3.63,7.38l-7.92,13.7c-1.92,3.2-6.59,1.27-8.17,0.49c-4.24,4.41-5.28,8.12-5.53,9.4
			c2.73,1.43,5.21,1.78,7.26,1.53c2.93-0.35,5-1.89,5.78-3.25l15.37-26.63C311.78,130.06,312.06,127.51,310.92,124.83z"/>
	</g>
	<path class="st11" d="M973.58,269.81h-96.81c-7.03,0-12.79,5.75-12.79,12.78v52.73v3.9v33.56c0,0.59,0.34,1.09,0.88,1.32
		c0.54,0.23,1.14,0.11,1.55-0.31l21.79-21.79h85.37c7.03,0,12.78-5.75,12.78-12.78V282.6C986.37,275.57,980.61,269.81,973.58,269.81
		z"/>
	<g>
		<path class="st10" d="M953.7,317.95c3.88,0,7.04-3.16,7.04-7.04c0-3.88-3.16-7.04-7.04-7.04c-3.88,0-7.04,3.16-7.04,7.04
			C946.66,314.79,949.82,317.95,953.7,317.95z"/>
		<path class="st10" d="M925.18,317.95c3.88,0,7.04-3.16,7.04-7.04c0-3.88-3.16-7.04-7.04-7.04c-3.88,0-7.04,3.16-7.04,7.04
			C918.13,314.79,921.3,317.95,925.18,317.95z"/>
		<path class="st10" d="M896.65,317.95c3.88,0,7.04-3.16,7.04-7.04c0-3.88-3.16-7.04-7.04-7.04c-3.88,0-7.04,3.16-7.04,7.04
			C889.61,314.79,892.77,317.95,896.65,317.95z"/>
	</g>
	<g>
		<path class="st10" d="M539.26,236.62c18.44,0,33.48-15.04,33.48-33.48c0-18.44-15.04-33.48-33.48-33.48
			c-18.44,0-33.48,15.04-33.48,33.48C505.78,221.59,520.82,236.62,539.26,236.62z"/>
		
			<ellipse transform="matrix(0.7071 -0.7071 0.7071 0.7071 -42.7191 464.4351)" class="st10" cx="539.26" cy="283.78" rx="33.48" ry="33.48"/>
		<path class="st4" d="M540.93,273.57c1.91-7.05,5.47-9.8,5.84-10.07c0.22-0.17,0.53-0.2,0.78-0.05c2.88,1.71,4.56,3.82,5.44,5.87
			c1.22,2.86,0.88,5.64,0.02,7.17l-13.87,24.03c-0.88,1.52-3.13,3.24-6.24,3.61c-2.21,0.27-4.87-0.14-7.78-1.76
			c-0.24-0.12-0.4-0.38-0.37-0.67c0-0.01,0.37-4.67,5.78-10.11c0.21-0.24,0.57-0.3,0.85-0.13c0.01,0.01,4.58,2.65,5.99,0.28
			l7.12-12.33c1.33-2.3-2.83-4.83-3.2-5.05C541,274.21,540.85,273.89,540.93,273.57z"/>
		<g>
			<path class="st4" d="M600.46,183.62c-0.73,0-1.32-0.59-1.32-1.32c0-0.73,0.59-1.32,1.32-1.32h42.27c0.73,0,1.32,0.59,1.32,1.32
				c0,0.73-0.59,1.32-1.32,1.32H600.46z"/>
			<path class="st4" d="M600.85,191.82c-0.73,0-1.32-0.59-1.32-1.32c0-0.73,0.59-1.32,1.32-1.32h16.27c0.73,0,1.32,0.59,1.32,1.32
				c0,0.73-0.59,1.32-1.32,1.32H600.85z"/>
			<path class="st4" d="M600.46,200.59c-0.73,0-1.32-0.59-1.32-1.32c0-0.73,0.59-1.32,1.32-1.32h16.91c0.73,0,1.32,0.59,1.32,1.32
				c0,0.73-0.59,1.32-1.32,1.32H600.46z"/>
			<path class="st4" d="M600.46,208.31c-0.73,0-1.32-0.59-1.32-1.32c0-0.73,0.59-1.32,1.32-1.32h33.82c0.73,0,1.32,0.59,1.32,1.32
				c0,0.73-0.59,1.32-1.32,1.32H600.46z"/>
			<path class="st4" d="M599.51,216.51c-0.2,0-0.37-0.59-0.37-1.32c0-0.73,0.16-1.32,0.37-1.32h15.15c0.2,0,0.37,0.59,0.37,1.32
				c0,0.73-0.16,1.32-0.37,1.32H599.51z"/>
			<path class="st4" d="M600.46,225.31c-0.73,0-1.32-0.59-1.32-1.32c0-0.73,0.59-1.32,1.32-1.32h54.31c0.73,0,1.32,0.59,1.32,1.32
				c0,0.73-0.59,1.32-1.32,1.32H600.46z"/>
		</g>
		<g>
			<path class="st4" d="M600.46,264.26c-0.73,0-1.32-0.59-1.32-1.32c0-0.73,0.59-1.32,1.32-1.32h42.27c0.73,0,1.32,0.59,1.32,1.32
				c0,0.73-0.59,1.32-1.32,1.32H600.46z"/>
			<path class="st4" d="M600.85,272.45c-0.73,0-1.32-0.59-1.32-1.32c0-0.73,0.59-1.32,1.32-1.32h16.27c0.73,0,1.32,0.59,1.32,1.32
				c0,0.73-0.59,1.32-1.32,1.32H600.85z"/>
			<path class="st4" d="M600.46,281.23c-0.73,0-1.32-0.59-1.32-1.32c0-0.73,0.59-1.32,1.32-1.32h16.91c0.73,0,1.32,0.59,1.32,1.32
				c0,0.73-0.59,1.32-1.32,1.32H600.46z"/>
			<path class="st4" d="M600.46,288.95c-0.73,0-1.32-0.59-1.32-1.32c0-0.73,0.59-1.32,1.32-1.32h33.82c0.73,0,1.32,0.59,1.32,1.32
				c0,0.73-0.59,1.32-1.32,1.32H600.46z"/>
			<path class="st4" d="M600.46,297.15c-0.73,0-1.32-0.59-1.32-1.32c0-0.73,0.59-1.32,1.32-1.32h54.31c0.73,0,1.32,0.59,1.32,1.32
				c0,0.73-0.59,1.32-1.32,1.32H600.46z"/>
			<path class="st4" d="M599.4,305.95c-0.14,0-0.26-0.59-0.26-1.32c0-0.73,0.12-1.32,0.26-1.32h10.75c0.14,0,0.26,0.59,0.26,1.32
				c0,0.73-0.12,1.32-0.26,1.32H599.4z"/>
		</g>
		<path class="st4" d="M526.37,228.95l-2.89-2.83c0,0-0.31,0.19-0.88,0.69C523.8,227.61,525.06,228.32,526.37,228.95z"/>
		<path class="st4" d="M526.37,228.95l-2.89-2.83c0,0-0.31,0.19-0.88,0.69C523.8,227.61,525.06,228.32,526.37,228.95z"/>
		<path class="st4" d="M552.07,228.95l2.9-2.83c0,0,0.31,0.19,0.88,0.69C554.65,227.61,553.39,228.33,552.07,228.95z"/>
		<path class="st4" d="M552.07,228.95l2.9-2.83c0,0,0.31,0.18,0.88,0.69C554.65,227.61,553.39,228.33,552.07,228.95z"/>
		<path class="st7" d="M549.28,223.84l0.24,0.07h0l0,0c1.12,0.33,3.23,1.03,5.45,2.21c0.2,0.13,0.49,0.35,0.84,0.71
			c-4.75,3.16-10.45,5-16.58,5c-6.13,0-11.83-1.84-16.58-5c0.34-0.37,0.64-0.59,0.84-0.72c2.22-1.18,4.33-1.88,5.45-2.21l0,0h0
			l0.24-0.07l0.02,0.02c2.21-0.45,4.12-0.51,4.12-0.51l5.85,0.84l0.07-0.01l0.07,0.01l5.85-0.84c0,0,1.9,0.06,4.12,0.51
			L549.28,223.84z"/>
		<path class="st9" d="M544.01,210.47l-0.14,3.29c0,0,0,6.74,0,7.76c0,0.49,0.46,1.21,1.28,1.83c-4.23,4.58-7.62,4.58-11.85,0
			c0.81-0.62,1.27-1.34,1.27-1.83c0-1.02,0-7.76,0-7.76l-0.14-3.29c0,0,2.36,0.42,4.79,1.02
			C541.66,210.89,544.01,210.47,544.01,210.47z"/>
		<path class="st8" d="M523.98,191.96c0,0-0.73,1.47-0.71,2.83c0.02,1.36,2.88,1.92,3.86,1.92c0.98,0,27.44,0.98,27.44,0.98
			s0.82-0.15,0.82-0.94c0-0.79-4.54-10.69-4.54-10.69L523.98,191.96z"/>
		<path class="st9" d="M524.79,200.36c2.33,0,4.21,1.89,4.21,4.21s-1.89,4.21-4.21,4.21c-2.33,0-4.21-1.89-4.21-4.21
			S522.46,200.36,524.79,200.36z"/>
		<path class="st9" d="M553.74,200.36c2.33,0,4.21,1.89,4.21,4.21s-1.89,4.21-4.21,4.21c-2.33,0-4.21-1.89-4.21-4.21
			S551.41,200.36,553.74,200.36z"/>
		<path class="st13" d="M539.32,178.02L539.32,178.02c7.94,0,14.43,6.49,14.43,14.43v13.11c0,7.94-6.49,14.43-14.43,14.43l0,0
			c-7.94,0-14.43-6.49-14.43-14.43v-13.11C524.89,184.52,531.39,178.02,539.32,178.02z"/>
		<path class="st8" d="M552.1,192.24c0,0,0,2.75,0,4.53c0,1.78,0.32,2.3,1.21,2.95c0,0-0.55,1.72,0.44,2.12c0,0,0-0.92,0.78-1.34
			v-10.99c-0.62,0.71-1.45,1.32-2.54,1.72C552.06,191.54,552.1,191.88,552.1,192.24z"/>
		<path class="st8" d="M526.65,191.48c0,0,0,1.99,0,3.26c0,1.28-0.23,1.66-0.88,2.13c0,0-0.16,1.09-0.88,1.38l-0.64-8.57
			c0.45,0.51,1.68,0.78,2.47,1.07C526.68,190.98,526.65,191.22,526.65,191.48z"/>
		<path class="st8" d="M555.39,196.75c-0.88-1.06-2-1.95-3.29-2.69l0,0l-0.06-0.03c-0.13-0.07-0.27-0.15-0.4-0.22
			c-2.54-1.46-3.41-3.36-3.41-3.36c-1.2,0.83-6.13,0.7-7.99,0.62c-0.21-0.01-0.42-0.02-0.63-0.03l-0.03,0l-0.05,0l0,0
			c-8.25-0.33-16.23,1.67-16.26,3.76c-7.14-15.02,10.72-29.48,26.61-13.07C558.27,182.13,557.53,190.75,555.39,196.75z"/>
	</g>
	<g>
		<rect x="943.78" y="700.73" class="st30" width="147.8" height="13.55"/>
		<path class="st10" d="M961.98,701.91c1.62,0,2.93-1.31,2.93-2.93c0-1.62-1.31-2.93-2.93-2.93H857.58c-3.14,0-6,1.29-8.08,3.36
			l-0.01,0.01c-2.07,2.07-3.36,4.94-3.36,8.08c0,3.14,1.29,6.01,3.36,8.08c2.07,2.08,4.94,3.37,8.09,3.37h104.41
			c1.62,0,2.93-1.31,2.93-2.93c0-1.61-1.31-2.93-2.93-2.93h-4.78c-0.8-0.6-1.6-1.27-2.3-2c-1.35-1.4-2.31-3-2.15-4.62
			c0.18-1.86,1.37-3.39,2.76-4.57H961.98z"/>
		<path class="st31" d="M1091.57,701.91c1.62,0,2.93-1.31,2.93-2.93c0-1.62-1.31-2.93-2.93-2.93H960.63c-3.14,0-6,1.29-8.08,3.36
			l-0.01,0.01c-2.07,2.07-3.36,4.94-3.36,8.08c0,3.14,1.29,6.01,3.36,8.08c2.07,2.08,4.94,3.37,8.09,3.37h130.94
			c1.62,0,2.93-1.31,2.93-2.93c0-1.61-1.31-2.93-2.93-2.93H960.63c-1.54,0-2.93-0.63-3.95-1.65c-1.02-1.01-1.64-2.41-1.64-3.95
			c0-1.54,0.63-2.94,1.64-3.95c1.02-1.01,2.42-1.64,3.96-1.64H1091.57z"/>
		<rect x="862.16" y="674.82" class="st19" width="123.91" height="16.44"/>
		<path class="st7" d="M963.99,676.25c-1.96,0-3.55-1.59-3.55-3.55c0-1.96,1.59-3.55,3.55-3.55h96.22c3.81,0,7.28,1.56,9.8,4.08
			l0.01,0.01c2.51,2.52,4.08,5.99,4.08,9.8c0,3.81-1.56,7.29-4.08,9.8c-2.51,2.53-5.99,4.09-9.81,4.09h-96.22
			c-1.96,0-3.55-1.59-3.55-3.55c0-1.96,1.59-3.55,3.55-3.55h5.8c0.97-0.72,1.94-1.54,2.79-2.42c1.63-1.7,2.8-3.64,2.61-5.61
			c-0.22-2.26-1.66-4.12-3.35-5.55H963.99z"/>
		<path class="st32" d="M862.16,676.25c-1.96,0-3.55-1.59-3.55-3.55c0-1.96,1.59-3.55,3.55-3.55h103.47c3.81,0,7.28,1.56,9.8,4.08
			l0.01,0.01c2.51,2.52,4.08,5.99,4.08,9.8c0,3.81-1.56,7.29-4.08,9.8c-2.51,2.53-5.99,4.09-9.81,4.09H862.16
			c-1.96,0-3.55-1.59-3.55-3.55c0-1.96,1.59-3.55,3.55-3.55h103.47c1.86,0,3.56-0.77,4.79-2c1.23-1.22,2-2.93,2-4.79
			c0-1.87-0.77-3.56-1.99-4.8c-1.23-1.23-2.93-1.99-4.8-1.99H862.16z"/>
		<rect x="954.3" y="646.52" class="st19" width="80.41" height="16.83"/>
		<path class="st8" d="M976.91,647.98c2.01,0,3.64-1.63,3.64-3.64c0-2-1.63-3.64-3.64-3.64h-59.28c-3.9,0-7.46,1.6-10.03,4.17
			l-0.01,0.01c-2.57,2.57-4.17,6.13-4.17,10.03c0,3.9,1.6,7.46,4.17,10.03c2.57,2.59,6.13,4.19,10.04,4.19h59.28
			c2.01,0,3.64-1.63,3.64-3.64c0-2.01-1.63-3.64-3.64-3.64h-5.94c-0.99-0.74-1.99-1.57-2.86-2.48c-1.67-1.74-2.87-3.73-2.67-5.74
			c0.22-2.31,1.7-4.21,3.43-5.67H976.91z"/>
		<path class="st24" d="M1034.71,647.98c2.01,0,3.64-1.63,3.64-3.64c0-2-1.63-3.64-3.64-3.64h-59.49c-3.9,0-7.46,1.6-10.03,4.17
			l-0.01,0.01c-2.57,2.57-4.17,6.13-4.17,10.03c0,3.9,1.6,7.46,4.17,10.03c2.57,2.59,6.13,4.19,10.05,4.19h59.49
			c2.01,0,3.64-1.63,3.64-3.64c0-2.01-1.63-3.64-3.64-3.64h-59.49c-1.91,0-3.64-0.78-4.9-2.04c-1.26-1.25-2.04-2.99-2.04-4.9
			c0-1.91,0.78-3.65,2.03-4.91c1.26-1.26,3-2.04,4.91-2.04H1034.71z"/>
	</g>
	<g>
		<polygon class="st5" points="551.96,718.96 489.01,718.96 489.01,695.61 541.31,695.61 		"/>
		<polygon class="st33" points="424.39,718.96 530.66,718.96 541.31,695.61 435.04,695.61 		"/>
		<path class="st10" d="M441.32,704.56c-0.6,0-1.18,0.25-1.73,0.73c-0.56,0.49-1.03,1.17-1.43,2.03c-0.82,1.79-0.54,2.68,0.82,2.68
			c0.41,0,0.83-0.06,1.27-0.17c0.44-0.11,0.89-0.25,1.35-0.41l-0.97,2.13c-0.93,0.35-1.89,0.51-2.87,0.51
			c-1.41,0-2.29-0.41-2.67-1.22c-0.38-0.82-0.21-1.99,0.49-3.53c0.44-0.96,1.01-1.81,1.7-2.54c0.7-0.73,1.47-1.29,2.33-1.68
			c0.86-0.39,1.75-0.59,2.67-0.59c1.01,0,1.87,0.22,2.58,0.65l-1.67,1.98c-0.27-0.16-0.55-0.3-0.84-0.41
			C442.06,704.62,441.72,704.56,441.32,704.56L441.32,704.56z M449.03,711.94h2.75l1.19-9.34h-3.35l-7.3,9.34h2.76l1.27-1.75h3.02
			L449.03,711.94L449.03,711.94z M449.78,708.13h-1.98c1.05-1.46,1.75-2.44,2.09-2.93c0.34-0.5,0.58-0.85,0.71-1.07
			c-0.07,0.23-0.15,0.62-0.27,1.16c-0.11,0.54-0.2,0.98-0.26,1.32L449.78,708.13L449.78,708.13z M453.83,711.94l4.24-9.3h2.51
			l-3.32,7.27h3.58l-0.93,2.03H453.83L453.83,711.94z M462.46,711.94l4.24-9.3h2.51l-3.32,7.27h3.58l-0.93,2.03H462.46
			L462.46,711.94z M480.94,704.56c-0.6,0-1.18,0.25-1.73,0.73c-0.56,0.49-1.03,1.17-1.43,2.03c-0.82,1.79-0.54,2.68,0.82,2.68
			c0.41,0,0.84-0.06,1.27-0.17c0.44-0.11,0.89-0.25,1.35-0.41l-0.97,2.13c-0.93,0.35-1.89,0.51-2.87,0.51
			c-1.4,0-2.29-0.41-2.67-1.22c-0.38-0.82-0.21-1.99,0.49-3.53c0.44-0.96,1.01-1.81,1.7-2.54c0.69-0.73,1.47-1.29,2.33-1.68
			c0.86-0.39,1.75-0.59,2.67-0.59c1.01,0,1.87,0.22,2.58,0.65l-1.67,1.98c-0.27-0.16-0.55-0.3-0.84-0.41
			C481.68,704.62,481.33,704.56,480.94,704.56L480.94,704.56z M488.46,711.94l0.93-2.05h-3.01l0.8-1.76h2.79l0.92-2.02h-2.79
			l0.66-1.46h3.01l0.92-2.02h-5.52l-4.24,9.3H488.46L488.46,711.94z M500,711.94h-3.3l-0.41-6.56h-0.06
			c-0.39,1.03-0.71,1.82-0.96,2.36l-1.91,4.19h-2.23l4.24-9.3h3.28l0.44,6.46h0.04c0.37-0.94,0.68-1.69,0.94-2.26l1.92-4.21h2.24
			L500,711.94L500,711.94z M507.16,711.94h-2.51l3.3-7.25h-2.27l0.94-2.06h7.05l-0.94,2.06h-2.27L507.16,711.94L507.16,711.94z
			 M517.33,711.94l0.93-2.05h-3.01l0.8-1.76h2.79l0.92-2.02h-2.79l0.66-1.46h3.01l0.92-2.02h-5.52l-4.24,9.3H517.33L517.33,711.94z
			 M524.06,708.55l-1.54,3.39H520l4.24-9.3h3.05c2.53,0,3.37,0.92,2.54,2.75c-0.49,1.08-1.4,1.91-2.72,2.5l0.86,4.06h-2.85
			l-0.43-3.39H524.06L524.06,708.55z M524.92,706.66h0.47c0.88,0,1.5-0.39,1.85-1.16c0.29-0.64,0.01-0.96-0.86-0.96h-0.5
			L524.92,706.66z"/>
	</g>
	<g>
		<path class="st5" d="M1272.11,736.02H186.35c-4.78,0-8.7-3.92-8.7-8.7l0,0c0-4.79,3.92-8.7,8.7-8.7h1085.76
			c4.78,0,8.7,3.92,8.7,8.7l0,0C1280.81,732.1,1276.89,736.02,1272.11,736.02z"/>
		<path class="st5" d="M106.35,736.02h38.54c4.79,0,8.7-3.92,8.7-8.7l0,0c0-4.79-3.92-8.7-8.7-8.7h-38.54c-4.79,0-8.7,3.92-8.7,8.7
			l0,0C97.65,732.1,101.57,736.02,106.35,736.02z"/>
	</g>
	<path class="st3" d="M1113.07,365.78c2.5-2.5,5.49-4.51,8.82-5.89c3.2-1.33,6.71-2.06,10.38-2.06s7.17,0.73,10.38,2.06
		c3.33,1.38,6.32,3.39,8.82,5.89c2.5,2.5,4.51,5.49,5.89,8.82c1.32,3.2,2.06,6.71,2.06,10.38c0,3.67-0.73,7.18-2.06,10.38
		c-1.38,3.33-3.4,6.32-5.89,8.82c-2.5,2.5-5.49,4.51-8.81,5.89c-3.2,1.33-6.71,2.06-10.38,2.06c-3.67,0-7.18-0.73-10.38-2.06
		c-3.33-1.38-6.32-3.4-8.82-5.89c-2.5-2.5-4.51-5.49-5.89-8.82c-1.33-3.2-2.06-6.71-2.06-10.38c0-3.67,0.73-7.17,2.06-10.38
		C1108.56,371.27,1110.58,368.28,1113.07,365.78L1113.07,365.78z M1122.85,362.21c-3.01,1.25-5.72,3.08-7.99,5.35
		c-2.28,2.28-4.11,4.99-5.35,7.99c-1.2,2.9-1.86,6.08-1.86,9.42c0,3.34,0.66,6.53,1.86,9.43c1.24,3,3.08,5.72,5.35,7.99
		c2.27,2.28,4.99,4.11,7.99,5.35c2.9,1.2,6.08,1.86,9.42,1.86c3.34,0,6.52-0.66,9.42-1.86c3.01-1.24,5.72-3.08,8-5.35
		c2.28-2.27,4.11-4.99,5.35-7.99c1.2-2.9,1.86-6.08,1.86-9.43c0-3.34-0.66-6.53-1.86-9.42c-1.24-3.01-3.08-5.72-5.35-7.99
		c-2.28-2.28-4.99-4.11-7.99-5.35c-2.9-1.2-6.08-1.86-9.42-1.86C1128.92,360.34,1125.74,361.01,1122.85,362.21L1122.85,362.21z
		 M1119.84,342.23c-1.7,0.49-3.37,1.09-5,1.78c-1.66,0.71-3.26,1.51-4.8,2.4c-1.57,0.91-3.08,1.91-4.53,3
		c-1.45,1.1-2.84,2.27-4.13,3.53c-0.46,0.44-1.03,0.7-1.63,0.78c-0.6,0.07-1.23-0.05-1.77-0.36c-3.99-2.3-8.18-4.58-12.08-6.98
		c-0.19-0.1-0.39-0.16-0.59-0.18c-0.22-0.02-0.45-0.01-0.67,0.05c-0.22,0.06-0.43,0.16-0.61,0.3c-0.17,0.13-0.32,0.3-0.44,0.5
		c-2.91,4.4-5.82,10.08-8.51,14.74c-0.12,0.2-0.18,0.41-0.21,0.63c-0.03,0.22-0.01,0.46,0.05,0.69c0.06,0.22,0.16,0.43,0.3,0.61
		c0.13,0.17,0.3,0.33,0.5,0.44c3.59,2.37,8.21,4.74,12.01,6.94c0.56,0.32,0.96,0.8,1.2,1.34c0.08,0.19,0.14,0.39,0.18,0.59
		l0.25,0.08l-0.28,1.12c-0.22,0.88-0.41,1.76-0.57,2.64c-0.16,0.85-0.29,1.75-0.4,2.68c-0.11,0.91-0.2,1.81-0.25,2.7
		c-0.05,0.87-0.08,1.78-0.08,2.73c0,0.95,0.03,1.86,0.08,2.73c0.05,0.89,0.14,1.79,0.25,2.7c0.11,0.93,0.25,1.82,0.41,2.68
		c0.16,0.88,0.35,1.76,0.57,2.64c0.16,0.65,0.08,1.31-0.18,1.87c-0.26,0.56-0.71,1.04-1.29,1.33l-10.64,6.14l0.01,0.01l-1.26,0.73
		c-0.2,0.12-0.37,0.27-0.5,0.44c-0.14,0.18-0.24,0.39-0.3,0.61c-0.06,0.23-0.08,0.46-0.05,0.69c0.03,0.21,0.1,0.43,0.21,0.63
		l7.87,13.64l0.01,0l0.64,1.1c0.12,0.2,0.27,0.37,0.44,0.5c0.18,0.14,0.39,0.24,0.61,0.3c0.23,0.06,0.46,0.08,0.68,0.05
		c0.21-0.03,0.42-0.1,0.62-0.21c3.81-2.39,8.11-4.68,12.04-6.95c0.56-0.32,1.17-0.43,1.76-0.36c0.6,0.07,1.18,0.34,1.63,0.77
		l0.01,0.01c1.3,1.25,2.68,2.43,4.14,3.53c1.44,1.09,2.96,2.09,4.52,3c1.55,0.9,3.17,1.7,4.84,2.41c1.64,0.7,3.34,1.3,5.09,1.8
		c0.61,0.18,1.13,0.54,1.49,1.02c0.37,0.48,0.57,1.09,0.58,1.72l0.01,13.88c0,0.23,0.04,0.45,0.13,0.65
		c0.08,0.21,0.22,0.4,0.38,0.56c0.16,0.16,0.35,0.29,0.56,0.38c0.2,0.08,0.42,0.13,0.65,0.13h17.03c0.23,0,0.45-0.04,0.65-0.13
		c0.21-0.09,0.4-0.22,0.56-0.38c0.16-0.16,0.29-0.35,0.38-0.56c0.08-0.2,0.13-0.42,0.13-0.65v-13.88c0-0.66,0.23-1.27,0.62-1.76
		c0.39-0.5,0.94-0.86,1.57-1.01c1.7-0.49,3.37-1.09,5-1.78c1.66-0.7,3.26-1.51,4.8-2.4c1.57-0.9,3.08-1.91,4.52-3
		c1.46-1.1,2.84-2.28,4.14-3.53c0.48-0.46,1.09-0.72,1.71-0.78c0.63-0.06,1.28,0.1,1.83,0.46l11.88,6.86
		c0.2,0.11,0.41,0.18,0.63,0.21c0.22,0.03,0.46,0.01,0.69-0.05c0.22-0.06,0.43-0.16,0.61-0.3c0.17-0.13,0.32-0.3,0.44-0.5
		c2.82-4.92,5.69-9.82,8.51-14.74c0.11-0.2,0.18-0.41,0.21-0.63c0.03-0.22,0.01-0.46-0.05-0.68c-0.06-0.22-0.16-0.43-0.3-0.61
		c-0.13-0.18-0.3-0.33-0.49-0.44l-12.02-6.94c-0.56-0.32-0.96-0.8-1.2-1.34c-0.06-0.15-0.12-0.3-0.15-0.46l-0.31-0.06l0.32-1.27
		c0.22-0.88,0.41-1.76,0.57-2.64c0.16-0.85,0.29-1.75,0.41-2.68c0.11-0.91,0.19-1.81,0.25-2.7c0.05-0.87,0.08-1.78,0.08-2.73
		c0-0.95-0.03-1.86-0.08-2.73c-0.05-0.89-0.14-1.79-0.25-2.7c-0.12-0.94-0.25-1.84-0.41-2.69c-0.16-0.87-0.35-1.75-0.57-2.63
		c-0.16-0.66-0.08-1.31,0.18-1.88c0.27-0.56,0.71-1.04,1.28-1.33l11.9-6.87c0.2-0.11,0.36-0.26,0.5-0.44
		c0.13-0.18,0.24-0.39,0.3-0.61c0.06-0.23,0.08-0.46,0.05-0.68c-0.03-0.22-0.1-0.43-0.21-0.63c-2.9-4.32-5.82-10.1-8.51-14.74
		c-0.12-0.2-0.27-0.37-0.44-0.5c-0.18-0.14-0.39-0.24-0.61-0.3c-0.23-0.06-0.46-0.08-0.69-0.05c-0.21,0.03-0.42,0.1-0.63,0.21
		l-12.03,6.94c-0.57,0.33-1.2,0.44-1.8,0.36c-0.61-0.08-1.18-0.36-1.63-0.8c-1.31-1.26-2.68-2.43-4.12-3.51
		c-1.43-1.08-2.94-2.07-4.51-2.99c-1.55-0.9-3.17-1.7-4.84-2.41c-1.64-0.7-3.34-1.3-5.09-1.8c-0.62-0.18-1.13-0.55-1.49-1.02
		c-0.37-0.48-0.57-1.09-0.57-1.72l-0.01-13.88c0-0.23-0.05-0.45-0.13-0.65c-0.08-0.21-0.22-0.4-0.38-0.56
		c-0.16-0.16-0.35-0.29-0.56-0.38c-0.2-0.08-0.42-0.13-0.65-0.13h-17.03c-0.23,0-0.46,0.04-0.65,0.13c-0.21,0.09-0.4,0.22-0.56,0.38
		c-0.31,0.32-0.5,0.74-0.5,1.21v13.88c0,0.66-0.23,1.28-0.61,1.76C1121.03,341.72,1120.47,342.08,1119.84,342.23L1119.84,342.23z
		 M1113.86,341.71c-1.75,0.75-3.45,1.59-5.08,2.54c-1.66,0.96-3.26,2.02-4.78,3.17c-1.52,1.15-2.98,2.39-4.36,3.72
		c-0.05,0.05-0.12,0.08-0.19,0.09c-0.07,0.01-0.15,0-0.21-0.04c-4.04-2.33-8.09-4.66-12.13-7c-0.48-0.26-1-0.42-1.52-0.48
		c-0.54-0.06-1.08-0.02-1.59,0.12c-0.53,0.14-1.04,0.39-1.49,0.73c-0.43,0.33-0.8,0.74-1.09,1.24c-2.93,4.75-5.71,9.89-8.51,14.74
		c-0.28,0.49-0.46,1.03-0.53,1.57c-0.07,0.56-0.03,1.12,0.11,1.65c0.14,0.53,0.39,1.04,0.73,1.48c0.33,0.43,0.74,0.8,1.24,1.09
		c3.87,2.39,8.06,4.66,12.02,6.94c0.06,0.03,0.11,0.09,0.14,0.16c0.03,0.07,0.04,0.14,0.02,0.21l-0.28,1.12l0.02,0.01
		c-0.12,0.54-0.23,1.1-0.34,1.66c-0.18,0.96-0.32,1.91-0.44,2.83c-0.11,0.92-0.2,1.87-0.26,2.85c-0.06,0.98-0.09,1.94-0.09,2.88
		c0,0.93,0.03,1.9,0.09,2.87c0.06,0.98,0.15,1.93,0.26,2.85c0.11,0.93,0.26,1.87,0.44,2.83c0.18,0.96,0.38,1.89,0.6,2.79
		c0.02,0.07,0.01,0.15-0.02,0.22c-0.03,0.07-0.08,0.13-0.15,0.16c-4.42,2.36-8.9,5.13-13.27,7.66l0.16,0.19l-0.13,0.17
		c-0.34,0.45-0.59,0.96-0.73,1.49c-0.14,0.53-0.18,1.09-0.11,1.65c0.07,0.54,0.24,1.07,0.53,1.57l9.15,15.85l0.17-0.1
		c0.09,0.08,0.18,0.16,0.28,0.24c0.45,0.34,0.95,0.59,1.49,0.73c0.53,0.14,1.09,0.18,1.64,0.11c0.53-0.07,1.05-0.23,1.53-0.5
		c4-2.12,8.12-4.69,12.08-6.97c0.06-0.03,0.13-0.04,0.2-0.03c0.07,0.01,0.15,0.04,0.2,0.09c1.38,1.33,2.84,2.57,4.36,3.72
		c1.52,1.14,3.12,2.2,4.78,3.16c1.64,0.95,3.35,1.8,5.11,2.55c1.75,0.74,3.55,1.38,5.39,1.91c0.07,0.02,0.13,0.06,0.17,0.12
		c0.05,0.06,0.07,0.13,0.07,0.2v13.88c0,0.57,0.11,1.11,0.32,1.61c0.22,0.52,0.53,0.99,0.92,1.38c0.39,0.39,0.86,0.7,1.37,0.92
		c0.5,0.21,1.05,0.32,1.62,0.32h17.03c0.56,0,1.11-0.12,1.61-0.32c0.52-0.22,0.98-0.53,1.37-0.92c0.39-0.39,0.7-0.85,0.92-1.38
		c0.21-0.5,0.32-1.05,0.32-1.61v-13.88c0-0.08,0.03-0.16,0.07-0.21c0.04-0.05,0.11-0.1,0.19-0.12l0.06-0.02
		c1.85-0.53,3.64-1.17,5.35-1.9c1.75-0.75,3.45-1.59,5.08-2.54c1.66-0.96,3.26-2.02,4.78-3.17c1.52-1.15,2.98-2.39,4.36-3.73
		c0.06-0.06,0.13-0.09,0.2-0.09c0.07-0.01,0.15,0.01,0.22,0.05l12.02,6.94c0.49,0.28,1.02,0.46,1.56,0.53
		c0.56,0.07,1.12,0.03,1.65-0.11c0.53-0.14,1.04-0.39,1.49-0.73c0.42-0.32,0.79-0.73,1.07-1.2c3.16-5.08,6.14-10.64,9.15-15.85
		l-0.16-0.1c0.03-0.13,0.05-0.27,0.07-0.4c0.07-0.56,0.03-1.12-0.11-1.65c-0.14-0.53-0.39-1.04-0.73-1.49
		c-0.33-0.43-0.74-0.8-1.24-1.09l-12.02-6.94c-0.06-0.04-0.11-0.09-0.14-0.16c-0.03-0.07-0.03-0.15-0.02-0.22l0.31-1.27l-0.02,0
		c0.11-0.5,0.21-1,0.3-1.51c0.18-0.96,0.32-1.91,0.44-2.84c0.11-0.92,0.2-1.87,0.26-2.85c0.06-0.98,0.09-1.94,0.09-2.87
		c0-0.93-0.03-1.89-0.09-2.87c-0.06-0.98-0.15-1.93-0.26-2.86c-0.11-0.92-0.26-1.87-0.44-2.83c-0.17-0.95-0.38-1.88-0.6-2.78
		c-0.02-0.07-0.01-0.15,0.02-0.22c0.03-0.06,0.09-0.12,0.15-0.16l12-6.93c0.5-0.29,0.91-0.66,1.23-1.09
		c0.34-0.45,0.59-0.96,0.73-1.48c0.14-0.53,0.18-1.09,0.11-1.65c-0.07-0.53-0.23-1.05-0.51-1.53c-2.86-5.3-6.14-10.64-9.17-15.88
		l-0.17,0.1c-0.09-0.08-0.18-0.16-0.28-0.24c-0.45-0.34-0.95-0.59-1.49-0.73c-0.53-0.14-1.09-0.18-1.65-0.11
		c-0.54,0.07-1.07,0.24-1.56,0.52l-0.89,0.51l0,0.01l-11.15,6.43c-0.07,0.04-0.14,0.05-0.21,0.04c-0.07-0.01-0.14-0.04-0.19-0.09
		l-0.03-0.03c-1.36-1.31-2.82-2.55-4.35-3.71c-1.52-1.15-3.11-2.2-4.76-3.15c-1.64-0.95-3.35-1.8-5.11-2.55
		c-1.75-0.74-3.55-1.38-5.38-1.91c-0.07-0.02-0.13-0.06-0.18-0.12c-0.04-0.06-0.07-0.13-0.07-0.2v-13.88c0-0.57-0.12-1.11-0.32-1.61
		c-0.22-0.52-0.53-0.99-0.93-1.37c-0.39-0.39-0.85-0.71-1.37-0.92c-0.5-0.21-1.05-0.32-1.61-0.32h-17.03
		c-0.57,0-1.12,0.12-1.62,0.32c-0.51,0.21-0.98,0.53-1.38,0.92c-0.77,0.77-1.24,1.83-1.24,2.99v13.88c0,0.08-0.03,0.15-0.07,0.21
		c-0.04,0.05-0.11,0.1-0.19,0.11l-0.05,0.02C1117.36,340.34,1115.58,340.98,1113.86,341.71z"/>
	<path class="st3" d="M1152.19,535.75L1152.19,535.75L1152.19,535.75z M1158.18,512.95c2.08-2.09,4.96-3.38,8.15-3.38
		s6.06,1.29,8.15,3.38c2.09,2.08,3.38,4.96,3.38,8.15s-1.29,6.06-3.38,8.15c-2.08,2.08-4.96,3.37-8.15,3.37s-6.06-1.29-8.15-3.37
		c-2.09-2.09-3.38-4.97-3.38-8.15S1156.09,515.03,1158.18,512.95L1158.18,512.95z M1160.66,501.52c-1.6,0.46-3.11,1.11-4.51,1.92
		c-1.44,0.84-2.77,1.84-3.96,2.99c-0.23,0.22-0.58,0.26-0.84,0.1l-5.35-3.09l-0.03-0.02c-0.31-0.17-0.66-0.2-0.98-0.11
		c-0.33,0.09-0.62,0.3-0.81,0.62l-0.02,0.04l-3.77,6.52c-0.18,0.31-0.22,0.68-0.13,1.01c0.09,0.33,0.3,0.62,0.62,0.81l0.04,0.02
		l5.31,3.07c0.28,0.16,0.41,0.48,0.33,0.78l0,0c-0.2,0.79-0.35,1.6-0.45,2.43c-0.1,0.81-0.15,1.64-0.15,2.48
		c0,0.84,0.05,1.67,0.15,2.48c0.1,0.83,0.25,1.64,0.45,2.43c0.08,0.33-0.08,0.66-0.37,0.8l-5.31,3.07v0
		c-0.31,0.18-0.53,0.48-0.62,0.81c-0.09,0.33-0.05,0.69,0.13,1.01l3.79,6.56v0c0.18,0.31,0.48,0.53,0.81,0.62
		c0.33,0.09,0.69,0.05,1.01-0.13l0.04-0.02l5.32-3.07c0.28-0.16,0.62-0.11,0.84,0.1c1.19,1.15,2.52,2.15,3.96,2.99
		c1.41,0.82,2.94,1.47,4.54,1.93c0.31,0.09,0.51,0.37,0.52,0.68v6.18c0,0.36,0.15,0.69,0.39,0.93c0.24,0.24,0.57,0.39,0.94,0.39
		h7.58c0.36,0,0.69-0.15,0.93-0.39c0.24-0.24,0.39-0.57,0.39-0.93v-6.18c0-0.34,0.23-0.62,0.54-0.69c1.6-0.46,3.11-1.11,4.51-1.92
		c1.44-0.83,2.77-1.84,3.96-2.99c0.24-0.23,0.61-0.26,0.88-0.08l5.32,3.07c0.31,0.18,0.68,0.22,1.01,0.13
		c0.33-0.09,0.62-0.3,0.8-0.62l0.02-0.03l3.77-6.53l0,0c0.18-0.31,0.22-0.68,0.13-1.01c-0.09-0.33-0.3-0.63-0.61-0.81l-5.35-3.09
		c-0.28-0.16-0.41-0.48-0.33-0.78h0c0.2-0.79,0.35-1.6,0.45-2.43c0.1-0.81,0.15-1.64,0.15-2.48c0-0.84-0.05-1.67-0.15-2.48
		c-0.1-0.83-0.25-1.64-0.45-2.43c-0.08-0.33,0.08-0.66,0.37-0.8l5.31-3.07c0.31-0.18,0.52-0.48,0.61-0.81
		c0.09-0.33,0.05-0.69-0.13-1.01l-0.02-0.04l-3.77-6.52l0,0c-0.18-0.31-0.48-0.53-0.81-0.62c-0.33-0.09-0.69-0.05-1.01,0.13v0
		l-5.35,3.09c-0.29,0.17-0.64,0.11-0.86-0.12c-1.18-1.14-2.51-2.14-3.95-2.97c-1.41-0.82-2.94-1.47-4.54-1.93
		c-0.31-0.09-0.51-0.37-0.51-0.68v-6.17c0-0.36-0.15-0.7-0.39-0.93c-0.24-0.24-0.57-0.39-0.93-0.39h-7.58
		c-0.36,0-0.69,0.15-0.94,0.39c-0.24,0.24-0.39,0.57-0.39,0.93v6.17C1161.21,501.17,1160.97,501.45,1160.66,501.52z"/>
	<path class="st2" d="M697.16,65.21h61.42c1.39,0,2.68,0.5,3.68,1.33c0.27,0.11,0.52,0.3,0.72,0.55c0.11,0.14,0.19,0.3,0.25,0.46
		c0.72,0.97,1.15,2.16,1.15,3.45v36.1c0,1.59-0.65,3.04-1.7,4.09v0.01c-1.05,1.05-2.5,1.7-4.1,1.7h-61.42c-1.6,0-3.05-0.65-4.1-1.7
		c-1.05-1.05-1.7-2.5-1.7-4.1v-36.1c0-1.3,0.43-2.5,1.16-3.47c0.06-0.16,0.14-0.31,0.25-0.45c0.19-0.25,0.44-0.44,0.72-0.55
		C694.48,65.71,695.77,65.21,697.16,65.21L697.16,65.21z M759.38,109.24l-24.34-18.59l-6.07,4.64l-0.01,0l-0.02,0.01
		c-0.05,0.04-0.1,0.07-0.15,0.1l-0.01,0.01l-0.03,0.02l-0.01,0.01l-0.03,0.02l-0.01,0l-0.03,0.02l-0.01,0l-0.03,0.02l-0.01,0
		l-0.03,0.02l-0.01,0l-0.04,0.02l0,0l-0.04,0.02l0,0c-0.07,0.03-0.13,0.05-0.2,0.07h0c-0.07,0.02-0.14,0.03-0.21,0.04l0,0l-0.04,0
		l0,0l-0.04,0l-0.01,0l-0.08,0h0l-0.04,0h0h-0.04h-0.01l-0.04,0h-0.01l-0.08,0l0,0l-0.04,0l0,0l-0.04,0l0,0
		c-0.07-0.01-0.14-0.02-0.21-0.04h0c-0.07-0.02-0.14-0.04-0.2-0.07l0,0l-0.04-0.02l0,0l-0.04-0.02l0,0l-0.04-0.02l0,0l-0.03-0.02
		l-0.01,0l-0.03-0.02l-0.01,0L727,95.44l-0.01-0.01l-0.03-0.02l-0.01-0.01c-0.05-0.03-0.1-0.07-0.15-0.1l-0.02-0.01l-0.01,0
		l-6.07-4.64l-24.34,18.59c0.25,0.09,0.51,0.14,0.79,0.14h61.42C758.86,109.39,759.13,109.34,759.38,109.24L759.38,109.24z
		 M737.21,88.99l23.65,18.07V71.01l0-0.09L737.21,88.99L737.21,88.99z M694.89,107.06l23.65-18.07l-23.65-18.07l0,0.09V107.06
		L694.89,107.06z M727.87,91.7l30.06-22.96h-60.12L727.87,91.7z"/>
	<path class="st2" d="M140.57,251.13c1.51-5.58,3.69-9.48,5.56-12.03c1.83-2.49,3.43-3.76,3.83-4.06c0.38-0.31,0.86-0.49,1.34-0.53
		h0.01c0.47-0.03,0.96,0.07,1.4,0.33c2.19,1.3,3.95,2.75,5.37,4.28c1.6,1.73,2.74,3.55,3.51,5.34c0.93,2.18,1.31,4.34,1.32,6.29
		c0,2.35-0.54,4.42-1.36,5.86l-0.01,0.01l-21.19,36.71c-0.84,1.44-2.35,2.98-4.41,4.16c-1.7,0.99-3.78,1.75-6.16,2.03
		c-1.92,0.23-4.06,0.16-6.35-0.36c-2-0.45-4.12-1.25-6.32-2.47c-0.43-0.22-0.79-0.56-1.02-0.98v-0.01c-0.23-0.4-0.34-0.88-0.3-1.37
		v0c0-0.01,0.27-3.48,3.03-8.31c1.36-2.37,3.33-5.11,6.19-7.99c0.37-0.39,0.86-0.64,1.38-0.72c0.53-0.08,1.09,0.01,1.58,0.29
		c0.11,0.06,5.84,3.34,7.27,0.93l10.87-18.83c0.6-1.04-0.23-2.33-1.27-3.4c-1.28-1.32-2.87-2.29-3.13-2.44
		c-0.47-0.26-0.83-0.67-1.04-1.14C140.48,252.25,140.43,251.69,140.57,251.13L140.57,251.13L140.57,251.13z M148.35,240.73
		c-1.69,2.3-3.66,5.82-5.05,10.88c0.56,0.35,2.18,1.4,3.54,2.79c1.77,1.83,3.1,4.22,1.68,6.69l-10.88,18.85
		c-2.57,4.33-9.5,0.88-10.79,0.18c-2.58,2.62-4.37,5.12-5.61,7.28c-2.08,3.63-2.56,6.24-2.66,6.96c1.92,1.06,3.75,1.74,5.47,2.13
		c1.95,0.44,3.77,0.51,5.42,0.31c1.98-0.24,3.7-0.87,5.11-1.68c1.62-0.94,2.79-2.1,3.4-3.16l21.18-36.69l0,0
		c0.61-1.08,1.01-2.67,1.01-4.52c0-1.6-0.33-3.4-1.1-5.22c-0.65-1.53-1.62-3.08-2.99-4.55c-1.19-1.29-2.7-2.53-4.57-3.66
		C151.06,237.66,149.83,238.71,148.35,240.73z"/>
	<path class="st3" d="M1175.29,676.88c0-1.09-0.88-1.98-1.97-1.98c-1.09,0-1.98,0.89-1.98,1.98v4.65h-4.65
		c-1.09,0-1.98,0.88-1.98,1.98s0.89,1.98,1.98,1.98h4.65v4.65c0,1.09,0.89,1.98,1.98,1.98c1.09,0,1.97-0.88,1.97-1.98v-4.65h4.65
		c1.09,0,1.97-0.88,1.97-1.98s-0.88-1.98-1.97-1.98h-4.65V676.88z"/>
	<path class="st3" d="M542.04,406.13c0-1.09-0.89-1.98-1.98-1.98c-1.09,0-1.98,0.88-1.98,1.98v4.65h-4.65
		c-1.09,0-1.98,0.89-1.98,1.98c0,1.09,0.89,1.98,1.98,1.98h4.65v4.65c0,1.09,0.88,1.98,1.98,1.98c1.09,0,1.98-0.88,1.98-1.98v-4.65
		h4.65c1.09,0,1.98-0.88,1.98-1.98c0-1.09-0.89-1.98-1.98-1.98h-4.65V406.13z"/>
	<path class="st3" d="M322.74,435.22c0-1.09-0.88-1.98-1.98-1.98c-1.09,0-1.98,0.88-1.98,1.98v4.65h-4.65
		c-1.09,0-1.98,0.88-1.98,1.98c0,1.09,0.88,1.98,1.98,1.98h4.65v4.65c0,1.09,0.88,1.98,1.98,1.98c1.09,0,1.98-0.89,1.98-1.98v-4.65
		h4.65c1.09,0,1.98-0.89,1.98-1.98c0-1.09-0.88-1.98-1.98-1.98h-4.65V435.22z"/>
	<path class="st3" d="M544.27,45.87c0-1.09-0.88-1.98-1.98-1.98c-1.09,0-1.98,0.89-1.98,1.98v4.65h-4.65
		c-1.09,0-1.98,0.89-1.98,1.98c0,1.09,0.88,1.98,1.98,1.98h4.65v4.65c0,1.09,0.88,1.97,1.98,1.97c1.09,0,1.98-0.88,1.98-1.97v-4.65
		h4.65c1.09,0,1.98-0.88,1.98-1.98c0-1.09-0.88-1.98-1.98-1.98h-4.65V45.87z"/>
	<path class="st3" d="M237.71,228.65c0-1.09-0.88-1.98-1.98-1.98c-1.09,0-1.98,0.88-1.98,1.98v4.65h-4.65
		c-1.09,0-1.98,0.88-1.98,1.98c0,1.09,0.89,1.98,1.98,1.98h4.65v4.65c0,1.09,0.89,1.98,1.98,1.98c1.09,0,1.98-0.89,1.98-1.98v-4.65
		h4.65c1.09,0,1.98-0.89,1.98-1.98c0-1.09-0.89-1.98-1.98-1.98h-4.65V228.65z"/>
	<path class="st3" d="M206.39,33.98c0-1.09-0.88-1.98-1.98-1.98c-1.09,0-1.98,0.88-1.98,1.98v4.65h-4.65
		c-1.09,0-1.98,0.89-1.98,1.98c0,1.09,0.88,1.98,1.98,1.98h4.65v4.65c0,1.09,0.88,1.97,1.98,1.97c1.09,0,1.98-0.88,1.98-1.97v-4.65
		h4.65c1.09,0,1.98-0.89,1.98-1.98c0-1.09-0.89-1.98-1.98-1.98h-4.65V33.98z"/>
	<path class="st3" d="M101.22,414.38c0-1.09-0.88-1.98-1.98-1.98c-1.09,0-1.98,0.88-1.98,1.98v4.65h-4.65
		c-1.09,0-1.98,0.88-1.98,1.98s0.88,1.98,1.98,1.98h4.65v4.65c0,1.09,0.88,1.98,1.98,1.98c1.09,0,1.98-0.89,1.98-1.98v-4.65h4.65
		c1.09,0,1.98-0.89,1.98-1.98s-0.89-1.98-1.98-1.98h-4.65V414.38z"/>
	<path class="st3" d="M1056.69,248.79c0-1.09-0.88-1.98-1.98-1.98c-1.09,0-1.98,0.88-1.98,1.98v4.65h-4.65
		c-1.09,0-1.98,0.89-1.98,1.98c0,1.09,0.88,1.98,1.98,1.98h4.65v4.65c0,1.09,0.88,1.98,1.98,1.98c1.09,0,1.98-0.89,1.98-1.98v-4.65
		h4.65c1.09,0,1.98-0.89,1.98-1.98c0-1.09-0.88-1.98-1.98-1.98h-4.65V248.79z"/>
	<path class="st3" d="M1081.31,506.12c0-1.09-0.88-1.98-1.98-1.98c-1.09,0-1.98,0.89-1.98,1.98v4.65h-4.65
		c-1.09,0-1.98,0.88-1.98,1.98c0,1.09,0.88,1.98,1.98,1.98h4.65v4.65c0,1.09,0.88,1.98,1.98,1.98c1.09,0,1.98-0.89,1.98-1.98v-4.65
		h4.65c1.09,0,1.98-0.89,1.98-1.98c0-1.09-0.89-1.98-1.98-1.98h-4.65V506.12z"/>
	<path class="st10" d="M593.41,334.43c0-1.09-0.89-1.98-1.98-1.98c-1.09,0-1.98,0.89-1.98,1.98v4.65h-4.65
		c-1.09,0-1.98,0.89-1.98,1.98s0.89,1.98,1.98,1.98h4.65v4.65c0,1.09,0.89,1.98,1.98,1.98c1.09,0,1.98-0.88,1.98-1.98v-4.65h4.65
		c1.09,0,1.98-0.88,1.98-1.98s-0.89-1.98-1.98-1.98h-4.65V334.43z"/>
	<path class="st10" d="M450.2,188.99c0-1.09-0.89-1.98-1.98-1.98c-1.09,0-1.98,0.88-1.98,1.98v4.65h-4.65
		c-1.09,0-1.98,0.89-1.98,1.98c0,1.09,0.89,1.97,1.98,1.97h4.65v4.65c0,1.09,0.88,1.98,1.98,1.98c1.09,0,1.98-0.88,1.98-1.98v-4.65
		h4.65c1.09,0,1.98-0.88,1.98-1.97c0-1.09-0.89-1.98-1.98-1.98h-4.65V188.99z"/>
	<path class="st10" d="M709.77,220.31c0-1.09-0.89-1.98-1.98-1.98c-1.09,0-1.98,0.89-1.98,1.98v4.65h-4.65
		c-1.09,0-1.98,0.88-1.98,1.98c0,1.09,0.88,1.98,1.98,1.98h4.65v4.65c0,1.09,0.88,1.98,1.98,1.98c1.09,0,1.98-0.88,1.98-1.98v-4.65
		h4.65c1.09,0,1.98-0.89,1.98-1.98c0-1.09-0.88-1.98-1.98-1.98h-4.65V220.31z"/>
	<path class="st10" d="M837.31,623.09c0-1.09-0.88-1.98-1.98-1.98c-1.09,0-1.98,0.89-1.98,1.98v4.65h-4.65
		c-1.09,0-1.98,0.88-1.98,1.98c0,1.09,0.88,1.98,1.98,1.98h4.65v4.65c0,1.09,0.88,1.98,1.98,1.98c1.09,0,1.98-0.88,1.98-1.98v-4.65
		h4.65c1.09,0,1.97-0.88,1.97-1.98c0-1.09-0.88-1.98-1.97-1.98h-4.65V623.09z"/>
	<path class="st10" d="M1108.07,620.85c0-1.09-0.88-1.98-1.97-1.98c-1.09,0-1.98,0.89-1.98,1.98v4.65h-4.65
		c-1.09,0-1.98,0.88-1.98,1.98c0,1.09,0.88,1.98,1.98,1.98h4.65v4.65c0,1.09,0.88,1.98,1.98,1.98c1.09,0,1.97-0.89,1.97-1.98v-4.65
		h4.65c1.09,0,1.98-0.89,1.98-1.98c0-1.09-0.89-1.98-1.98-1.98h-4.65V620.85z"/>
</g>
</svg>
