<?xml version="1.0" encoding="utf-8"?>
<!-- Generator: Adobe Illustrator 26.3.1, SVG Export Plug-In . SVG Version: 6.00 Build 0)  -->
<svg version="1.1" id="Layer_1" xmlns="http://www.w3.org/2000/svg" xmlns:xlink="http://www.w3.org/1999/xlink" x="0px" y="0px"
	 viewBox="0 0 41.3 41.2" style="enable-background:new 0 0 41.3 41.2;" xml:space="preserve">
<style type="text/css">
	.st0{fill:#185CFF;}
</style>
<g id="eye" transform="translate(-0.001)">
	<path id="Path_2163" class="st0" d="M41.1,20c-2.6-3.2-5.8-5.8-9.5-7.7c-3.3-1.7-7-2.6-10.8-2.6h-0.3c-3.7,0-7.4,0.9-10.8,2.6
		c-3.7,1.9-6.9,4.5-9.5,7.7c-0.3,0.3-0.3,0.8,0,1.2c0,0,0,0,0,0c2.6,3.2,5.8,5.8,9.5,7.7c3.3,1.7,7,2.6,10.8,2.6h0.3
		c3.7,0,7.4-0.9,10.8-2.6c3.7-1.9,6.9-4.5,9.5-7.7c0.1-0.1,0.2-0.3,0.2-0.5C41.3,20.4,41.3,20.2,41.1,20L41.1,20z M10.5,27.4
		c-3.3-1.7-6.2-4-8.6-6.8c2.4-2.8,5.3-5.2,8.6-6.8c0.9-0.5,1.9-0.9,2.9-1.2c-4.4,4-4.8,10.9-0.7,15.4c0.2,0.3,0.5,0.5,0.7,0.7
		C12.3,28.3,11.4,27.9,10.5,27.4L10.5,27.4z M20.7,29.9c-5.1,0-9.3-4.2-9.3-9.3s4.2-9.3,9.3-9.3s9.3,4.2,9.3,9.3c0,0,0,0,0,0
		C29.9,25.7,25.8,29.9,20.7,29.9z M30.9,27.4c-0.9,0.5-1.9,0.9-2.9,1.2c4.4-4,4.8-10.9,0.7-15.4c-0.2-0.3-0.5-0.5-0.7-0.7
		c1,0.3,1.9,0.7,2.9,1.2c3.3,1.7,6.2,4,8.6,6.8C37.1,23.4,34.2,25.7,30.9,27.4L30.9,27.4z"/>
	<path id="Path_2164" class="st0" d="M20.7,25c-2.5,0-4.4-2-4.4-4.4c0-2.5,2-4.4,4.4-4.4c2.5,0,4.4,2,4.4,4.4
		C25.1,23,23.1,25,20.7,25z M20.7,17.8c-1.6,0-2.8,1.3-2.8,2.8s1.3,2.8,2.8,2.8c1.6,0,2.8-1.3,2.8-2.8v0
		C23.5,19,22.2,17.8,20.7,17.8z"/>
	<path id="Path_2165" class="st0" d="M20.7,37.9c-0.4,0-0.8-0.4-0.8-0.8l0,0v-3.2c0-0.4,0.4-0.8,0.8-0.8c0.4,0,0.8,0.4,0.8,0.8v3.2
		C21.5,37.6,21.1,37.9,20.7,37.9C20.7,37.9,20.7,37.9,20.7,37.9z"/>
	<path id="Path_2166" class="st0" d="M26.7,37c-0.2,0-0.4-0.1-0.6-0.2l-2.3-2.3c-0.3-0.3-0.3-0.8,0-1.1s0.8-0.3,1.1,0l2.3,2.3
		c0.3,0.3,0.3,0.8,0,1.1C27.1,36.9,26.9,37,26.7,37L26.7,37z"/>
	<path id="Path_2167" class="st0" d="M14.7,37c-0.4,0-0.8-0.4-0.8-0.8c0-0.2,0.1-0.4,0.2-0.6l2.3-2.3c0.3-0.3,0.8-0.3,1.1,0
		s0.3,0.8,0,1.1l0,0l-2.3,2.3C15.1,36.9,14.9,37,14.7,37L14.7,37z"/>
	<path id="Path_2168" class="st0" d="M20.7,8.1c-0.4,0-0.8-0.4-0.8-0.8V4c0-0.4,0.4-0.8,0.8-0.8c0.4,0,0.8,0.4,0.8,0.8v3.2
		C21.5,7.7,21.1,8.1,20.7,8.1C20.7,8.1,20.7,8.1,20.7,8.1z"/>
	<path id="Path_2169" class="st0" d="M17,8.1c-0.2,0-0.4-0.1-0.6-0.2l-2.3-2.3c-0.3-0.3-0.3-0.8,0-1.1c0.3-0.3,0.8-0.3,1.1,0
		l2.3,2.3c0.3,0.3,0.3,0.8,0,1.1C17.4,8,17.2,8.1,17,8.1L17,8.1z"/>
	<path id="Path_2170" class="st0" d="M24.4,8.1c-0.4,0-0.8-0.4-0.8-0.8c0-0.2,0.1-0.4,0.2-0.6l2.3-2.3c0.3-0.3,0.8-0.3,1.1,0
		c0.3,0.3,0.3,0.8,0,1.1l-2.3,2.3C24.8,8,24.6,8.1,24.4,8.1z"/>
	<path id="Path_2171" class="st0" d="M20.7,1.6c-0.4,0-0.8-0.4-0.8-0.8S20.2,0,20.7,0l0,0c0.4,0,0.8,0.4,0.8,0.8S21.1,1.6,20.7,1.6z
		"/>
	<path id="Path_2172" class="st0" d="M20.7,41.2c-0.4,0-0.8-0.4-0.8-0.8c0-0.4,0.4-0.8,0.8-0.8l0,0l0,0c0.4,0,0.8,0.4,0.8,0.8
		C21.5,40.8,21.1,41.2,20.7,41.2z"/>
</g>
</svg>
