<?xml version="1.0" encoding="utf-8"?>
<!-- Generator: Adobe Illustrator 26.3.1, SVG Export Plug-In . SVG Version: 6.00 Build 0)  -->
<svg version="1.1" id="Layer_1" xmlns="http://www.w3.org/2000/svg" xmlns:xlink="http://www.w3.org/1999/xlink" x="0px" y="0px"
	 viewBox="0 0 1050 861.3" style="enable-background:new 0 0 1050 861.3;" xml:space="preserve">
<style type="text/css">
	.st0{fill:#0B71C0;}
	.st1{fill:#92B5F9;}
	.st2{fill:#FFFFFF;}
	.st3{fill:#FA7167;}
	.st4{fill:#7C9AF2;}
	.st5{fill:#BED1F9;}
	.st6{fill:#FB9390;}
	.st7{fill:#0B0754;}
	.st8{fill:#E8605D;}
	.st9{fill:#EF7F7F;}
	.st10{fill:#4951EC;}
</style>
<g>
	<g id="Layer_1_00000051367405916727486280000002479696463528896147_">
		<path class="st0" d="M1038.4,830.7H7.3c-1.8,0-3.4,1.4-3.5,3.2c-0.1,2,1.4,3.6,3.4,3.6h1031.2c1.9,0,3.4-1.5,3.4-3.4
			S1040.3,830.7,1038.4,830.7L1038.4,830.7z"/>
		<circle class="st1" cx="364.7" cy="131.6" r="55.6"/>
		<path class="st1" d="M386.2,179.8c-27.5,11.5-59.3-1.5-70.8-29s1.5-59.3,29-70.8s59.3,1.5,70.8,29S413.7,168.2,386.2,179.8z"/>
		
			<ellipse transform="matrix(0.7071 -0.7071 0.7071 0.7071 15.0573 296.4736)" class="st2" cx="365.4" cy="130.1" rx="44.2" ry="44.2"/>
		<path class="st2" d="M381.5,168.5c-21.3,8.9-45.9-1.1-54.8-22.4s1.1-45.9,22.4-54.8s45.9,1.1,54.8,22.4S402.8,159.6,381.5,168.5z"
			/>
		<path class="st1" d="M331,141.8l-6.9,2.9c-1.1,0.5-1.7,1.8-1.2,2.9c0.5,1.1,1.8,1.7,2.9,1.2l6.9-2.9c1.1-0.5,1.7-1.8,1.2-2.9
			C333.4,141.9,332.1,141.4,331,141.8z M378.4,161.3c-1.1,0.5-1.7,1.8-1.2,2.9l2.9,6.9c0.5,1.1,1.8,1.7,2.9,1.2s1.7-1.8,1.2-2.9
			l-2.9-6.9C380.9,161.3,379.6,160.8,378.4,161.3z M404.8,110.9l-6.9,2.9c-1.1,0.5-1.7,1.8-1.2,2.9s1.8,1.7,2.9,1.2l6.9-2.9
			c1.1-0.5,1.7-1.8,1.2-2.9S405.9,110.4,404.8,110.9z M347.5,87.5c-1.1,0.5-1.7,1.8-1.2,2.9l2.9,6.9c0.5,1.1,1.8,1.7,2.9,1.2
			s1.7-1.8,1.2-2.9l-2.9-6.9C349.9,87.5,348.6,87,347.5,87.5z M363,68.6l0.6-8.8c0.1-0.7,0.7-1.3,1.4-1.2l10.1,0.7
			c0.7,0.1,1.3,0.7,1.2,1.4l-0.6,8.8c-0.1,0.7-0.7,1.3-1.4,1.2l-10-0.7C363.5,70,363,69.4,363,68.6L363,68.6z M323.8,85.3l-6.7-5.7
			c-0.5-0.5-1.4-0.4-1.8,0.1l-6.6,7.7c-0.5,0.5-0.4,1.4,0.1,1.8l6.7,5.7c0.5,0.5,1.4,0.4,1.8-0.1l6.6-7.7
			C324.4,86.6,324.3,85.8,323.8,85.3z M334.6,70.9c-0.6,0.3-1.4,0-1.7-0.7l-2.4-5.8c-0.3-0.6,0-1.4,0.7-1.7l11.9-5
			c0.6-0.3,1.4,0,1.7,0.7l2.4,5.8c0.3,0.6,0,1.4-0.7,1.7L334.6,70.9z"/>
		<path class="st1" d="M337.7,73.1c-5.8,0.4-11.5-2.8-13.9-8.5c-3-7.1,0.4-15.2,7.5-18.2s15.2,0.4,18.2,7.5c2.4,5.7,0.7,12-3.7,15.9
			l1.3,3.2c6-4.6,8.5-12.9,5.4-20.3c-3.7-8.7-13.8-12.9-22.5-9.2c-8.7,3.7-12.9,13.8-9.2,22.5c3.1,7.4,10.7,11.4,18.3,10.4
			L337.7,73.1L337.7,73.1z"/>
		<path class="st1" d="M343.4,77.6c1.4-0.6,2.8-1.1,4.2-1.6l-3.5-8.4l-6.6,2.8l3.5,8.3C341.7,78.3,342.5,77.9,343.4,77.6z
			 M369,128.2c0.9,2.1-0.1,4.5-2.2,5.3c-2.1,0.9-4.5-0.1-5.3-2.2c-0.9-2.1,0.1-4.5,2.2-5.3S368.2,126.1,369,128.2z"/>
		<path class="st1" d="M369.6,96.5l-2.9,33.5c-0.1,0.8-0.8,1.5-1.7,1.4c-0.8-0.1-1.5-0.8-1.4-1.7C363.7,129.6,363.4,131,369.6,96.5z
			"/>
		<path class="st1" d="M394.7,146.4l-30-15.1c-0.8-0.4-1.1-1.3-0.7-2.1s1.3-1.1,2.1-0.7C366.2,128.6,364.9,127.8,394.7,146.4
			L394.7,146.4z"/>
		<path class="st1" d="M366.8,129.1c0.4,0.8,0,1.8-0.9,2.2c-0.8,0.4-1.8,0-2.2-0.9c-0.4-0.8,0-1.8,0.9-2.2
			C365.5,127.9,366.4,128.3,366.8,129.1z"/>
		<path class="st3" d="M778.7,370.5c-0.4-0.5-1-0.7-1.6-0.5c-2.9,0.8-8.3-0.4-10.9-1.3l-2.9-14.2c2.1-1.9,6.5-5,9.5-5.4
			c0.6-0.1,1.1-0.5,1.3-1.1l3.6-10.8c0.2-0.6,0-1.2-0.4-1.7c-2.2-2.1-3.8-7.3-4.3-10.1l10.8-9.6c2.7,0.9,7.6,3.1,9.5,5.5
			c0.4,0.5,1,0.7,1.6,0.6l11.1-2.3c0.6-0.1,1.1-0.6,1.3-1.2c0.8-2.9,4.5-7,6.6-8.8l13.7,4.6c0.6,2.7,1.1,8.1-0.1,11
			c-0.2,0.6-0.1,1.2,0.3,1.7l7.5,8.5c0.4,0.5,1,0.7,1.6,0.5c2.9-0.8,8.3,0.4,10.9,1.3l2.9,14.2c-2.1,1.9-6.5,5-9.5,5.4
			c-0.6,0.1-1.1,0.5-1.3,1.1l-3.6,10.8c-0.2,0.6,0,1.2,0.4,1.7c2.2,2.1,3.8,7.3,4.3,10.1l-10.8,9.6c-2.7-0.9-7.6-3.1-9.5-5.5
			c-0.4-0.5-1-0.7-1.6-0.6l-11.1,2.3c-0.6,0.1-1.1,0.6-1.3,1.2c-0.8,2.9-4.5,7-6.6,8.8l-13.7-4.6c-0.6-2.7-1.1-8.1,0.1-11
			c0.2-0.6,0.1-1.2-0.3-1.7L778.7,370.5z M809.8,367c7.7-1.6,12.7-9.1,11.1-16.8c-1.6-7.7-9.1-12.7-16.8-11.1s-12.7,9.1-11.1,16.8
			C794.6,363.6,802.1,368.5,809.8,367z M811.6,375.9c12.7-2.6,20.8-14.9,18.3-27.5c-2.6-12.7-14.9-20.8-27.5-18.3
			c-12.7,2.6-20.8,14.9-18.3,27.5C786.7,370.3,799,378.5,811.6,375.9z M870.7,421.2c0.1-0.5,0.5-0.8,1-0.9l8.8-1.8
			c0.5-0.1,1,0.1,1.3,0.5c1.5,1.9,5.4,3.7,7.5,4.4l8.6-7.6c-0.4-2.2-1.7-6.3-3.4-8c-0.3-0.3-0.5-0.9-0.3-1.3l2.9-8.5
			c0.2-0.5,0.6-0.8,1.1-0.9c2.4-0.3,5.9-2.8,7.5-4.3l-2.3-11.2c-2.1-0.7-6.3-1.7-8.6-1c-0.5,0.1-1,0-1.3-0.4l-6-6.8
			c-0.3-0.4-0.4-0.9-0.2-1.3c0.9-2.2,0.5-6.5,0-8.7l-10.9-3.6c-1.7,1.4-4.6,4.6-5.2,6.9c-0.1,0.5-0.5,0.8-1,0.9l-8.8,1.8
			c-0.5,0.1-1-0.1-1.3-0.5c-1.5-1.9-5.4-3.7-7.5-4.4l-8.6,7.6c0.4,2.2,1.7,6.3,3.4,8c0.3,0.3,0.5,0.9,0.3,1.3l-2.9,8.5
			c-0.2,0.5-0.6,0.8-1.1,0.9c-2.4,0.3-5.9,2.8-7.5,4.3l2.3,11.2c2.1,0.7,6.3,1.7,8.6,1c0.5-0.1,1,0,1.3,0.4l6,6.8
			c0.3,0.4,0.4,0.9,0.2,1.3c-0.9,2.2-0.5,6.5,0,8.7l10.9,3.7C867.2,426.7,870.1,423.6,870.7,421.2z M873.8,407.7
			c-7.6,1.5-15-3.4-16.5-11s3.4-15,11-16.5s15,3.4,16.5,11S881.4,406.2,873.8,407.7z"/>
		<path class="st1" d="M250.2,242.8l-9.8-3.7l-8.6,6c-1,0.7-2.3-0.1-2.3-1.2l0.5-10.5l-8.3-6.3c-1-0.7-0.7-2.2,0.5-2.5l10.1-2.8
			l3.4-9.9c0.4-1.1,1.9-1.3,2.6-0.3l5.8,8.8l10.5,0.2c1.2,0,1.8,1.4,1.1,2.3L249,231l3,10C252.4,242.2,251.3,243.2,250.2,242.8z"/>
		<path class="st4" d="M265.2,180.2l-5.3-14.4l-13.7,4.1l-5.8-13.8l-13.6,2.2l-6.1-9.6l-4.8,3.1l8.1,12.9l12.8-2.2l6.1,14.4l13.4-4
			l4.9,13L265.2,180.2z"/>
		<path class="st5" d="M838.2,246l-13.4-7.3l-7.6,12l-13.5-6.6l-8.7,10.5l-11-3.3l-1.6,5.6l14.6,4.4l8.2-10l14.1,6.9l7.5-11.8
			l12.1,6.6L838.2,246z"/>
		<path class="st1" d="M485.2,65.7l-5.7,14.1l12.8,6.2l-5.1,14.2l11.5,7.5l-2,11.2l5.7,1l2.7-15l-10.9-7l5.2-14.8L486.8,77l5.2-12.8
			L485.2,65.7z"/>
		<path class="st3" d="M822.9,430.6l-2.8-5.5l-6.4,0.2l-2.7-6.5l-6.7,2.4l-3.4-7.2l-6.4,1.4l-4.4-6.4l2.4-1.6l3.3,4.7l6.8-1.4
			l3.2,6.8l6.8-2.3l3,7.1l6.2-0.2l2.7,5.1l4-1l0.7,2.9L822.9,430.6z M705.7,173.6l-3-8.8l13.7-6.3l-2.8-13.5l9.5-6.4l-3.3-4.8
			l-12.6,8.6l2.6,12.7l-14.2,6.6L700,175L705.7,173.6z"/>
		<path class="st5" d="M815.1,153.3c15.1,23-5.4,55-32.2,50.2c-4.8-0.9-9.8,0.3-14.2,2.9l-14.8,9.1c-4.1,2.5-9.2,1.4-11.8-2.5
			l-5.7-8.7c-2.6-3.9-1.7-9.4,1.9-12.5c13.4-11.5,19.1-14.7,20.9-24.4C764.5,139.2,800,130.3,815.1,153.3L815.1,153.3z"/>
		<path class="st2" d="M779.7,165.9c-0.3-1.3-0.6-2.7-0.7-4.1c-0.7-8,5.5-10.8,8.8-8.8c2.1,1.3,2.9,4.4,1.7,7.3
			c-1.1,2.6-3.4,4.5-5.8,6.6c1.3,4.5,3.3,8.6,6,12.3c7.3-4.4,12.6-2,12.9,2c0.2,2.6-1.4,5.2-3.9,6.3c-1.5,0.6-5.3,1.5-9.9-3.5
			c-12.4,8.7-28.5,21.6-28.6,21.7l-2.1-2.9c0,0,16.1-12.9,28.5-21.6c-2.6-3.5-4.5-7.5-5.9-11.7c-14.1,12.3-26.5,22.1-27,22.4l-2-2.9
			C752.6,188.5,764.7,179.1,779.7,165.9z M785.7,156.1c-1.1-0.4-4,0.8-2.8,7.1C786.1,160.3,787.1,159.1,785.7,156.1z M792,182.1
			c1.8,1.9,4.5,3.6,6.4,1.5C800.7,181,797.3,179.1,792,182.1z"/>
		<path class="st1" d="M769.1,206.2c-0.1,0.1-0.3,0.1-0.4,0.2l-14.8,9.1c-4.1,2.5-9.2,1.4-11.8-2.5l-5.7-8.7
			c-2.6-3.9-1.7-9.4,1.9-12.5c6-5.1,10.4-8.6,13.7-11.7L769.1,206.2L769.1,206.2z"/>
		<path class="st0" d="M688.1,433.9l30.7,30.7c0,0,58.4,22.8,64.9,36.9c6.5,14-5.9,13.4-19.6,11.4c-13.7-2-52.5-26.1-52.5-26.1
			L676,445.7L688.1,433.9L688.1,433.9z"/>
		<path class="st5" d="M777.9,495.2l-7.6-2.7l-14.7,6.9c0,0-7.6,5.1-11.3,17.9c-3.7,12.7,0,88.8,6.1,101.1
			C756.6,630.6,777.9,495.2,777.9,495.2L777.9,495.2z"/>
		<path class="st6" d="M826.1,800.4c0,0,5.4,3.5,5.8,5.1c0.4,1.6,4.4,18.9,2.9,20.9s-6.9,1-4.8,2.5c1.6,1.1,11.8,1.9,18.4,0.2
			c1.9-0.5,1-16.7,1.3-19.1c0.4-3.6,2.9-11.7,1.4-13.8c-0.7-1-4.9-2.8-8.7-4.3c-4-1.6-8.4-5.9-8.4-5.9L826.1,800.4L826.1,800.4z"/>
		<path class="st7" d="M842.1,791.6c0,0-3.2,30.7-6.9,32.9c-1,0.6-6.2,1.1-6.7,3.6c0,0.1-0.1,2.6,1.5,2.6l19.9-0.1
			c0,0,0.2-15.1,0.1-21c0,0,2.7-15.1,1.8-16.2C850.8,792.4,842.1,791.6,842.1,791.6L842.1,791.6z"/>
		<path class="st6" d="M903.9,800.4c0,0,5.4,3.5,5.8,5.1c0.4,1.6,4.4,18.9,2.9,20.9s-6.9,1-4.8,2.5c1.6,1.1,11.8,1.9,18.4,0.2
			c1.9-0.5,1-16.7,1.3-19.1c0.4-3.6,2.9-11.7,1.4-13.8c-0.7-1-4.9-2.8-8.7-4.3c-4-1.6-8.4-5.9-8.4-5.9L903.9,800.4L903.9,800.4z"/>
		<path class="st8" d="M806.2,601c0,0,18.2,36.1,21.9,45.8l27.7,70.3l61.1,71.9c0,0-4.5,11.5-11.2,14.6c0,0-73.7-59.5-79.7-68.9
			c-9.2-14.3-51.3-101.8-51.3-101.8l-7.8-16.8L806.2,601z"/>
		<path class="st3" d="M762.3,600.7l0.3,30.8c0,0-13.2,100.5-10.6,106.5c6.2,14.6,74.5,63.9,74.5,63.9l9.3-16l-49.1-54.8l18.6-53.3
			c5.2-12.4,16.3-36.3,16-49.8c-0.2-11.5-23.1-38.2-23.1-38.2L762.3,600.7L762.3,600.7z"/>
		<path class="st0" d="M790.2,646.2c18.1-4.1,32.8-10.5,34.3-15.6c0.7-2.3-9.4-25.3-16.8-55.9c-2.4-10-2-19.4-5.9-54.5
			c-0.8-7.4-3.9-23-15.4-27.1c-4-1.4-6.3-1.2-6.3-1.2c-0.1,0-14.7,0.1-21.3,3.8c-1.6,2.2-7.8,14.4-9.4,47.7
			c-0.7,14.5-3.6,61.2-3,68.8l0.3,3.3C749.2,635.6,770.4,650.7,790.2,646.2L790.2,646.2z"/>
		<path class="st6" d="M758.2,518.5c7.4-0.8,26-25.1,26-25.1v-0.1l-11.5-18.1c0,0-16.9,3.1-13.6,8.2c3.3,5.1,5.2,17.5,5.2,17.5
			c-0.1,0.1-0.1,0.3-0.2,0.5C762.9,503.8,759.1,511.3,758.2,518.5z"/>
		<path class="st9" d="M759.1,483.3c-3.3-5.1,13.6-8.2,13.6-8.2l1,1.5c0,1.3-0.1,2.4-0.5,3.4c-1.8,5.1-6.2,9.7-10.8,11.9
			C761.6,488.8,760.5,485.4,759.1,483.3L759.1,483.3z"/>
		<path class="st6" d="M763.2,446.4c0.4-0.3,13.2,20.7,10.1,29.4c-3.1,8.7-13.4,15.6-19.5,12.5c-6.8-3.4-17.1-27.6-10.9-37.8
			C749,440.3,763.2,446.4,763.2,446.4L763.2,446.4z"/>
		<path class="st7" d="M744.6,437c7.5-1.6,21,0.6,28.6,5.9c9.3,6.6,9.6,18.2,5.4,25.8c-4.2,7.6-1.7,13.2-1.7,13.2
			s-13.1-0.8-15.7-9.7c-1.1-3.7,0.3-6.3-2.2-8.4c-1.9-1.6-3.6-6.3-5.5-10.1c0,0-8.4-4.5-11.7-0.8C740.7,454.1,735,439.1,744.6,437
			L744.6,437z"/>
		<path class="st6" d="M757.6,465.4c1.1,2.7,3.4,4.4,5,3.8c1.6-0.7,2-3.4,0.8-6.2c-1.1-2.7-3.4-4.4-5-3.8
			C756.9,459.9,756.5,462.7,757.6,465.4z"/>
		<path class="st7" d="M920,791.7c0,0-3.3,30.6-7,32.9c-1,0.6-6.2,1.1-6.7,3.6c0,0.1-0.2,2.7,1.5,2.6h19.9c0,0,0.2-15.1,0.1-21
			c0,0,2.7-15.1,1.8-16.2C928.6,792.4,920,791.7,920,791.7L920,791.7z"/>
		<path class="st0" d="M480.8,650.1c-15.8-33-20.1-82.3-2.9-121.4c29-66,108.8-92.9,102.9-167.7c-1.5-18.8-9.9-34-22.2-43.7
			c-32.5-25.6-84.7-12.1-122,5.8c-23.8,11.4-46,27.7-66.4,48.7l-10.4-132.1c44.8-31.8,99-48.4,153-52.6
			c110.8-8.7,196.4,32.9,205.1,143.7c7.9,101.1-60.4,145.9-106.2,196.4c-25.4,28-31.2,49.7-29.2,74.7c1,12.9,5.9,28.9,13.7,39.1
			L480.8,650.1L480.8,650.1z M560.3,830.7c-107.7,8.5-120.2-136.2-11.4-144.8C656.1,677.5,667.6,822.2,560.3,830.7z"/>
		<path class="st6" d="M671.7,440.5c-0.2-0.9,0.5-0.2-0.8-7.3c-0.4-2.1-1.7-4.2-2.6-5.4c-0.5-0.6-1.7-1.7-2.4-2.1
			c-1.2-0.7-2.2,0.5-1.9,1.1c0.2,0.7,1.5,3,1.8,3.7c0.2,0.7,0.4,2.3-0.2,2.9c-0.6,0.6-9.5-9.7-10-10.6c-0.5-0.8-1.5-4.1-1.5-4.1
			s-0.8-2.4-1.7-1.8c-0.6,0.4-1.3,2.4,0.5,6.3c1.6,3.4,3.7,6.2,3.5,6.4c-0.6,0.5-4.5-4.1-4.5-4.1s-1.4-2.6-2.3-3.5
			c-0.6-1.7-1.6-3.9-2.7-3c-0.2,0.2,0.5,3.8,0.5,3.8s1.4,2.4,1.9,3.6c1,2.1,3.3,4.7,4.1,6c0.7,1.1,0,0.9,0,1s-1-1.2-2.6-3
			c-0.8-0.9-1.8-1.8-2.6-3.1c-0.7-1.1-1.8-2.6-2.5-3.4c-2-2.4-3.1-0.8-1.5,1.8c0.6,1,1.2,2,1.9,3.1c2.5,4.1,5.7,7.3,5.4,7.7
			c-0.4,0.5-5.8-5.7-5.8-5.7s-3.8-2.5-1.5,1.2c2.6,4.3,5.5,7.1,5.6,7.2c0.9,0.8,3.3,4.4,6.8,6.7c3.5,2.2,9.2,5.6,9.2,5.6
			c0.7,0.8,2.3,3.3,4.6,7l8.5-10.2C675.5,445.1,671.9,441.2,671.7,440.5L671.7,440.5z"/>
		<path class="st4" d="M665,454.9l11.7-10.3l40.3,39.8c0,0,62.4,5.5,62.6,5.5l2.5,0.8c22.7,7.8,13.3,26.3,9,29.2
			c-10.2,6.7-66.6,2.7-84.7-8.6C691.6,502.1,665,454.9,665,454.9L665,454.9z"/>
		<path class="st6" d="M244.7,512c0.5,1.7,0.7,2.2,1.3,3.3c3.7,7.2,12.3,17.4,12.3,17.4l6.6-15.9c0,0-1.1-5-3-12.1
			C255.5,506.4,249.4,507.5,244.7,512L244.7,512z"/>
		<path class="st10" d="M282.7,498.2c0,0-36.9,17-38.1,16.7c-0.8-0.2-15.2-25.9-15.3-50.1c-0.1-11.2,10.8-24.6,22.9-21.9
			c6.1,1.3,6,3.1,15,17.1S282.7,498.2,282.7,498.2L282.7,498.2z"/>
		<path class="st6" d="M314.2,802.5l-0.9,15.5c-0.3,2-1.6,6.8-1.6,8.6c0,6.7,29.9-5.7,23.2-8.7c-0.6-0.3-3.8-2.3-4-4.6
			c-0.3-3.5-1.1-10.6-1.1-10.6L314.2,802.5z"/>
		<path class="st7" d="M334.8,817.9c0,0-7,2.1-10.6,2.6s-8.3-3.8-10.9-2.6c-2.8,1.3-2.7,12.9-2.7,12.9s37.6,3.3,48.2-0.1
			C363,829.2,349.2,822.7,334.8,817.9L334.8,817.9z"/>
		<path class="st6" d="M253.1,802.5l-0.9,15.5c-0.3,2-1.6,6.8-1.6,8.6c0,6.7,29.9-5.7,23.2-8.7c-0.6-0.3-4.7-3.8-4.9-6.1
			c-0.3-3.5-0.1-9.1-0.1-9.1L253.1,802.5L253.1,802.5z"/>
		<path class="st7" d="M273.7,817.9c0,0-7,2.1-10.6,2.6s-8.3-3.8-10.9-2.6c-2.8,1.3-2.9,12.9-2.9,12.9s37.8,3.8,48.4-0.1
			C301.9,829.1,288.1,822.7,273.7,817.9L273.7,817.9z"/>
		<path class="st6" d="M262.2,520.6l26.3-39.3c0.1-0.3,0.3-1,0.7-2.1c1.3-3.9,4.1-12,6.5-20.1V459c0.8-2.8,2.4-7.7,3.9-12.5
			c1.7-5.3,3.9-11.9,3.9-13c-0.1-0.2-0.2-0.5-0.4-1c-1-2.7-2.3-9-2.7-11.8c-0.3-1.8-0.6-6,1.4-6c3.1,0,1.6,4.3,3,6.9
			c0.5-1.8,1.6-5.3,2.1-8.9l0.5-8.4c0.1-0.6-0.5-5.2,1.6-5.2h0.1c1.9,0.2,1.9,5.1,2.7,13.3c0.3-1,0.5-2.1,0.7-3.2
			c0-0.6,0.4-3.1,0.7-4.4c-0.4-2.3-0.2-6,2.1-5.6c1.2,0.2,1.1,5.3,1.1,5.3c0,0.7-0.1,6.1,0,7.1c0.2-1.8,1.2-9.5,3-9.5
			c1.5,0,1.6,2.1,1.6,3.7c0,1-1,9.3-1,10.3c0.7-1.3,1.5-8.6,2.2-8.6c2.9,0,1.9,10.4,0.8,13.2c-0.1,0.3-0.2,0.8-0.3,1.5
			c-0.4,1.9-1,5-2.5,7.8c-1.8,3.4-4.4,8.7-4.8,9.5c-0.3,1.7-1.2,7.7-2.3,15.2c-0.5,3.2-1,6.8-1.5,10.4c-0.1,0.8-0.6,3.3-2.7,12.8
			c-2.8,12.9-3.1,13.5-3.3,13.7c-1.2,2.3-29.6,43.4-30.8,45.2l-0.7,1L262.2,520.6L262.2,520.6z"/>
		<path class="st9" d="M311.2,428.9c0,0-2.1-5.8-5.9-5.8c0,0,2.1-0.8,3.9,0.7S311.2,428.9,311.2,428.9L311.2,428.9z"/>
		<path class="st6" d="M255.9,417.6l-3.4,22.9c0,0,12.9,11.1,20.4,8.7c6.3-2,2-10.8,2-10.8s-3.4-12.2-2.3-18.6
			C273.6,413.4,255.9,417.6,255.9,417.6L255.9,417.6z"/>
		<path class="st9" d="M258.3,424.5c3.2,1.6,9.6,3.9,14.6,4.4c-0.5-3.2-0.7-6.6-0.3-9.1c0.5-3-3-3.6-7-3.5c-5.1,0.5-9.7,1.3-9.7,1.3
			l-0.7,4.4C256.2,423.1,257.2,424,258.3,424.5L258.3,424.5z"/>
		<path class="st6" d="M239.6,391.3c-0.5,0,5.1,25.5,13.8,29.9s21.7,2.1,24.2-4.8c2.7-7.6-7.1-33.7-19.4-37
			C245.9,376.1,239.6,391.3,239.6,391.3z"/>
		<path class="st7" d="M249.7,367.8c-7,4.3-10.2,10.6-11.2,13.2c-3.3,1.7-7.2,5.2-9.1,14.9c-2.3,11.9,6,21,14.8,23.8s10.3,9,10.3,9
			l0.9-6.7c0,0-2-5.8-4.9-8.7c-2.9-2.9,1.4-7.2,1.8-10.6c0.3-2.7-1.5-7.8-1.1-12.2c0,0,4.9-7.9,9.7-9.9
			C268.9,377.2,258.6,362.3,249.7,367.8L249.7,367.8z"/>
		<path class="st6" d="M253.4,407c1.1,2.9,0.7,5.9-1,6.5c-1.7,0.7-4-1.2-5.2-4.1c-1.1-2.9-0.7-5.9,1-6.5
			C249.9,402.2,252.2,404.1,253.4,407z M285.9,521.2l50.7-8.8c0,0-5.8-15.5-7.8-15.5c-2.1,0-38.4,16.9-38.4,16.9l-2.9,6.2
			L285.9,521.2L285.9,521.2z"/>
		<path class="st7" d="M259.9,558.4c0,0-5.1,26.1-3,45.9c2.1,19.8,2.2,90.1,2.2,90.1L251.2,807l18.7,0.4c0,0,22.1-112.5,21.7-109.6
			s7.4-79.2,7.4-79.2l-26.4-62.7L259.9,558.4z"/>
		<path class="st7" d="M264.8,557.1c0,0-3.3,23.5,0.8,33.8c4.1,10.3,35.4,111.5,35.8,119.8s10.8,99.4,10.8,99.4l21.7-0.7l4.7-101.4
			l-9.8-127.4l-9.6-32.2L264.8,557.1L264.8,557.1z"/>
		<path class="st6" d="M252.5,440.5c0,0,5.4,3.7,10.3,3.3c5-0.4,12.1-5.4,12.1-5.4l-1-3.6c0,0-12.9-2-13.2-1.8
			C260.3,433.3,252.5,440.5,252.5,440.5L252.5,440.5z M309.6,496.1c0,0,19.2,19.3,27.9,16c8.7-3.3,12.2-14.6-8.9-31.1
			C309.6,466.3,309.6,496.1,309.6,496.1L309.6,496.1z"/>
		<path class="st4" d="M322.6,520c-2.9-16.6-23.5-68.1-25.2-77.6c-0.8-4.6-11.9-4.7-22.6-4.1c-11.2,0.6-22.4,2.2-22.4,2.2
			s-9.9,1.7-14.3,6.1c-4.4,4.4-5.5,16.4,0.8,39.4c5,18.1,11.1,28,14.1,41.2c0.6,4.4,1.1,8.8,1.8,13.9c1.1,19.7,0,45.8,0,45.8
			s54,12,74.3-6.2C329.2,580.6,325.5,536.9,322.6,520z"/>
		<path class="st0" d="M336.3,484.4c0,0-21.2,18.7-22.4,18.7c-0.8,0-30.3-23.1-37.1-42.1c-3.8-10.5,4.1-22.3,13.1-22.2
			c6.2,0,9,1.7,21.4,12.9C323.7,462.7,336.3,484.4,336.3,484.4z"/>
		<path class="st3" d="M660.3,114l-46,31.1c-4.7,3.2-11,1.9-14.2-2.7l-31.1-46c-3.2-4.7-1.9-11,2.7-14.2l46-31.1
			c4.7-3.2,11-1.9,14.2,2.7l31.1,46C666.2,104.5,664.9,110.9,660.3,114L660.3,114z"/>
		<path class="st2" d="M637.2,81.4c8.1,11.9,4.9,28.1-7,36.1c-11.9,8.1-28.1,4.9-36.1-7c-8.1-11.9-4.9-28.1,7-36.1
			C612.9,66.4,629.1,69.5,637.2,81.4z"/>
		<path class="st3" d="M607,85.3L617.7,97c0.8,0.9,0.7,2.2-0.1,3c-0.9,0.8-2.2,0.7-3-0.1c-0.1-0.1-0.2-0.3-0.3-0.5L607,85.3z"/>
		<path class="st3" d="M615.2,97l16.1-9l-14,12c-0.8,0.6-1.9,0.6-2.5-0.2c-0.6-0.8-0.6-1.9,0.2-2.5C615,97.2,615.1,97.1,615.2,97z"
			/>
		<path class="st5" d="M198.5,365.9h-76.1c-21.5,0-38.9-17.4-38.9-38.9v-2.2c0-21.5,17.4-38.9,38.9-38.9h76.1
			c21.5,0,38.9,17.4,38.9,38.9v2.2C237.5,348.4,220,365.9,198.5,365.9z"/>
		<path class="st5" d="M219.2,335.6l37.9,17l-25.4-35.5L219.2,335.6z"/>
		<path class="st2" d="M134.8,323.3c0,3.3-3,5.9-6.6,5.9c-3.7,0-6.6-2.6-6.6-5.9s3-5.9,6.6-5.9C131.8,317.3,134.8,320,134.8,323.3z
			 M165.7,323.3c0,3.3-3,5.9-6.6,5.9c-3.7,0-6.6-2.6-6.6-5.9s3-5.9,6.6-5.9C162.7,317.3,165.7,320,165.7,323.3z M196.6,323.3
			c0,3.3-3,5.9-6.6,5.9c-3.7,0-6.6-2.6-6.6-5.9s3-5.9,6.6-5.9C193.6,317.3,196.6,320,196.6,323.3z"/>
		<path class="st5" d="M554.3,52.4L548,39.1l5.2-2.4l3.6,7.5l8.6-5.2l3,4.9L554.3,52.4z"/>
		<path class="st3" d="M200.7,244l-13.8,4.9l-2-5.4l7.9-2.8l-4.4-9.1l5.2-2.5L200.7,244z"/>
		<path class="st1" d="M774.8,109.8c1,3.3,2.1,6.6,3.1,9.8c0.8,2.6,1.4,6.7,3.9,8.2c0.6,0.4,1.6,0.2,2-0.5c1.2-2.7-0.5-6.2-1.4-8.9
			c-1-3.3-2.1-6.6-3.1-9.8C778.4,105.8,774,107,774.8,109.8z M809.6,106.3c-5.3,18.1-5.4,17.6-5,19.4c0.3,1.4,2.3,1.9,3.3,0.9
			c1.2-1.3,0.9-0.9,6.1-19.1C814.7,104.7,810.4,103.5,809.6,106.3L809.6,106.3z M829.8,146.6c3.1-1.5,6.3-3,9.4-4.5
			c2.8-1.3,6.4-2.4,8.3-4.9c0.8-1.1-0.3-2.6-1.5-2.6c-3.1-0.1-6.4,2.3-9.1,3.6c-3.1,1.5-6.2,3-9.4,4.5
			C824.9,144,827.2,147.9,829.8,146.6z M819.6,201.1c3.2,4.1,6.4,8.4,10.1,12.2c2,2,4.8-1,3.1-3.1c-3.4-4-6.8-8-10.1-12.1
			C820.9,195.9,817.9,199,819.6,201.1L819.6,201.1z M831.4,180c2.9,1.3,5.8,2.5,8.8,3.6c2.7,1.1,5.9,2.9,8.8,2.5
			c1.5-0.2,1.7-2.3,0.9-3.2c-1.1-1.2-1.7-1.1-8.1-3.6c-2.9-1.1-5.8-2.3-8.7-3.4C830.8,175,829.1,179,831.4,180L831.4,180z"/>
	</g>
</g>
</svg>
