<?xml version="1.0" encoding="utf-8"?>
<!-- Generator: Adobe Illustrator 26.3.1, SVG Export Plug-In . SVG Version: 6.00 Build 0)  -->
<svg version="1.1" id="Layer_1" xmlns="http://www.w3.org/2000/svg" xmlns:xlink="http://www.w3.org/1999/xlink" x="0px" y="0px"
	 viewBox="0 0 220.6 573.96" style="enable-background:new 0 0 220.6 573.96;" xml:space="preserve">
<style type="text/css">
	.st0{fill:none;stroke:#FFFFFF;stroke-miterlimit:10;}
</style>
<g>
	<path class="st0" d="M196.77,326.09c0-1.54-0.16-3.07-0.24-4.61c0.46-8.67,0.39-17.32-0.01-25.99c0.49-15.47,0.39-30.93,0-46.39
		c0.47-18.25,0.32-36.5-0.02-54.76c0.48-23.18,0.29-46.37,0-69.56c0.07-7.09-0.05-14.19,0.3-21.27c0.19-3.77-1.09-6.22-3.98-8.65
		c-27.06-22.61-54.02-45.35-80.93-68.14c-2.64-2.24-4.38-2.21-7.04,0.05c-17.36,14.76-34.9,29.31-52.31,44.02
		c-10.57,8.94-21.01,18.02-31.52,27.04c-1.69,1.48-0.93,3.47-0.94,5.22c-0.1,19.62-0.13,39.24-0.12,58.85
		c0,10.5,0.13,20.98,0.2,31.48c-0.3,20.42-0.47,40.84,0,61.26c-0.36,17.93-0.55,35.84,0.02,53.77c-0.08,0.76-0.25,1.53-0.25,2.29
		c-0.02,54.06-0.04,108.12-0.02,162.18c0,1.31-0.46,2.84,1.03,3.78c0.27,0.38,0.46,0.82,0.8,1.1c28.08,23.71,56.2,47.37,84.21,71.15
		c2.39,2.02,3.59,0.95,5.39-0.57c27.36-23.11,54.75-46.2,82.21-69.2c2.52-2.11,3.31-4.34,3.31-7.53
		C196.76,423.11,196.79,374.59,196.77,326.09z M58.46,484.03l-19.92-15.18v-360l19.92-16.13V484.03z M98.3,518.18l-19.92-17.89
		V75.92L98.3,56.91V518.18z M138.14,500.29l-19.92,17.89V56.91l19.92,19.01V500.29z M177.99,468.85l-19.92,15.18V92.72l19.92,16.13
		V468.85z"/>
</g>
</svg>
