<svg xmlns="http://www.w3.org/2000/svg" width="124.522" height="124.521" viewBox="0 0 124.522 124.521"><g transform="translate(0 -0.002)"><g transform="translate(0 0.002)"><path d="M108.387,30.115a4.414,4.414,0,0,0,3.121-1.293L123.733,16.6A2.69,2.69,0,0,0,122,12.015l-6.506-.408,4.245-4.245a1.824,1.824,0,1,0-2.58-2.579l-4.245,4.245-.408-6.506A2.69,2.69,0,0,0,107.926.79L95.7,13.015a4.415,4.415,0,0,0-1.284,3.4l.42,6.695a57.561,57.561,0,0,0-79.866,82.582,1.824,1.824,0,0,0,2.7-2.455A53.932,53.932,0,0,1,94.392,27.551l-8.323,8.323A42.207,42.207,0,0,0,20,86.276h0a42.233,42.233,0,0,0,78.913-10.72,1.824,1.824,0,1,0-3.572-.741,38.585,38.585,0,0,1-72.1,9.787h0a38.083,38.083,0,0,1-4.27-17.633A38.546,38.546,0,0,1,83.491,38.453L75.242,46.7a26.947,26.947,0,1,0,2.58,2.58l8.249-8.249A38.42,38.42,0,0,1,96.138,66.745a1.824,1.824,0,0,0,1.824,1.814h.011a1.824,1.824,0,0,0,1.814-1.835A42.058,42.058,0,0,0,88.65,38.452l8.324-8.323A53.933,53.933,0,0,1,23.65,108.881a1.824,1.824,0,1,0-2.3,2.835A57.555,57.555,0,0,0,115.105,66.97a57.086,57.086,0,0,0-11.319-34.28q-1.15-1.549-2.39-3.005c7.151.449,6.765.43,6.991.43ZM80.82,66.97a23.295,23.295,0,1,1-8.163-17.683l-8.3,8.3a11.613,11.613,0,1,0,2.58,2.58l8.3-8.3A23.166,23.166,0,0,1,80.82,66.97ZM56.263,68.26a1.824,1.824,0,0,0,2.58,0l5.468-5.468a7.957,7.957,0,1,1-2.58-2.58l-5.468,5.468a1.824,1.824,0,0,0,0,2.579Zm41.8-52.077a.764.764,0,0,1,.223-.589L109,4.875l.476,7.592L98.513,23.431Zm3.034,9.827,10.964-10.964,7.592.476-10.72,10.72a.762.762,0,0,1-.589.223Z" transform="translate(0 -0.002)" fill="#fff"/></g></g></svg>